<?xml version="1.0" standalone="yes"?>
<svg xmlns="http://www.w3.org/2000/svg" width="512" height="512">
<path style="fill:#040404; stroke:none;" d="M240 0.388885L239 0.611115L237 0.916656L235 1L233 1L231 1.02777L230 1.08334L228 1.38889L227 1.61111L225 1.91666L224 1.97223L222 2.08334L220 2.38889L219 2.61111L217 2.94446L216 3.05554L214 3.38889L213 3.61111L211 3.94446L210 4.05554L208 4.38889L206 4.80554L204 5.19446L203 5.38889L201 5.86111L200 6.13889L198 6.63889L197 6.86111L196 7.13889L194 7.61111L193 7.80554L192 8L190 8.41666L188 9L187 9.33334L185 10L184 10.3055L183 10.6111L182 10.8611L180 11.3889L178 12L177 12.3333L174 13.3333L171 14.3333L170 14.6667L168 15.3889L167 15.8055L165 16.6111L163 17.3333L162 17.6667L161 18.0278L160 18.3889L158 19.25L157 19.7778L156 20.2222L155 20.75L154 21.1667L153 21.6111L151 22.3889L150 22.8333L149 23.25L148 23.7778L146 24.7778L145 25.2222L144 25.7778L143 26.2222L142 26.7778L141 27.2222L139 28.2222L138 28.7778L137 29.2222L136 29.7778L135 30.2222L133 31.25L131 32.3889L129 33.6111L127 34.75L126 35.25L124 36.3889L123 37.0278L122 37.6667L121 38.3333L119 39.6667L118 40.3333L116 41.6111L114 42.8333L113 43.4445L112 44.1667L110 45.6111L109 46.3055L107 47.6945L106 48.3889L104 49.8611L103 50.6389L102 51.3611L101 52.1389L100 52.8611L99 53.6389L97 55.1389L95 56.6389L94 57.3889L92 59.0833L90 60.9722L89 61.9167L87 63.6111L86 64.3889L84 66.0833L83 67.0278L82 68L80 70L75 75L70 80L68 82L67.0278 83L66.0833 84L64.3889 86L63.6111 87L61.9167 89L61 90L59.2222 92L57.6111 94L56.8056 95L55.1944 97L54.3889 98L53.6111 99L52 101L50.4167 103L49 105L48.3056 106L47.6111 107L46.8611 108L45.3889 110L44.0278 112L42.8056 114L42.1944 115L41.6111 116L40.3333 118L39.6667 119L38.3333 121L37.6667 122L37.0278 123L36.3889 124L35.25 126L34.75 127L33.6111 129L32.3889 131L31.25 133L30.2222 135L29.7778 136L29.2222 137L28.7778 138L28.2222 139L27.2222 141L26.7778 142L26.2222 143L25.2222 145L24.7778 146L24.2222 147L23.7778 148L23.2222 149L22.25 151L21.8333 152L21.3889 153L20.6111 155L20.1944 156L19.3889 158L18.6111 160L18.1944 161L17.3889 163L16.6111 165L15.8056 167L15.3889 168L15.0278 169L14.6667 170L14.3333 171L13.3333 174L12.3333 177L12 178L11.3889 180L11.1389 181L10.6111 183L10.3056 184L10 185L9.33333 187L9 188L8.38889 190L8.13889 191L7.86111 192L7.38889 194L7.19444 195L6.80556 197L6.61111 198L6.13889 200L5.86111 201L5.63889 202L5.38889 203L5.19444 204L4.80556 206L4.38889 208L4.05556 210L3.94444 211L3.61111 213L3.38889 214L3.05556 216L2.94444 217L2.61111 219L2.22222 221L2.08333 222L1.97222 224L1.91667 225L1.61111 227L1.38889 228L1.08333 230L1.02778 231L1 233L1 235L0.972222 236L0.916667 237L0.611111 239L0.388889 240L0.0833333 242L0.0277778 243L0 244L0 246L0 253L0 264L0 266L0 267L0.0277778 269L0.0833333 270L0.388889 272L0.611111 273L0.916667 275L0.972222 276L1 278L1 280L1.02778 281L1.08333 282L1.38889 284L1.61111 285L1.91667 287L2.02778 289L2.08333 290L2.38889 292L2.61111 293L2.94444 295L3.05556 296L3.38889 298L3.61111 299L3.94444 301L4.05556 302L4.38889 304L4.80556 306L5.19444 308L5.38889 309L5.63889 310L5.86111 311L6.13889 312L6.61111 314L6.80556 315L7.19444 317L7.38889 318L7.86111 320L8.13889 321L8.38889 322L9 324L9.33333 325L10 327L10.3056 328L10.6111 329L11.1389 331L11.3889 332L12 334L12.3333 335L13.3333 338L14.3333 341L14.6667 342L15.0278 343L15.3889 344L15.8056 345L16.6111 347L17.3889 349L18.1944 351L18.6111 352L19.3889 354L20.1944 356L20.6111 357L21.3889 359L21.8333 360L22.25 361L23.2222 363L23.7778 364L24.2222 365L24.7778 366L25.2222 367L26.2222 369L26.7778 370L27.2222 371L28.2222 373L28.7778 374L29.2222 375L29.7778 376L30.2222 377L31.25 379L32.3889 381L33.6111 383L34.75 385L35.25 386L36.3889 388L37.0278 389L37.6667 390L38.3333 391L39.6667 393L40.3333 394L41.6111 396L42.8056 398L43.3889 399L44.6944 401L46.1389 403L46.8611 404L47.6111 405L49 407L50.4167 409L51.1944 410L52.8056 412L53.6111 413L54.3889 414L55.1944 415L56.8056 417L57.6111 418L59.2222 420L61 422L61.9167 423L63.6111 425L64.3889 426L66.0833 428L67.0278 429L68 430L70 432L75 437L80 442L82 444L83 444.972L84 445.917L86 447.611L87 448.389L89 450.083L90 451.028L92 452.917L94 454.611L95 455.361L97 456.861L99 458.361L100 459.139L101 459.861L102 460.639L103 461.361L104 462.139L106 463.611L107 464.306L109 465.694L110 466.389L112 467.833L113 468.556L114 469.167L116 470.389L118 471.667L119 472.333L121 473.667L122 474.333L123 474.972L124 475.611L126 476.75L127 477.25L129 478.389L131 479.611L133 480.75L135 481.778L136 482.222L137 482.778L138 483.222L139 483.778L141 484.778L142 485.222L143 485.778L144 486.222L145 486.778L146 487.222L148 488.222L149 488.75L150 489.167L151 489.611L153 490.389L154 490.833L155 491.25L156 491.778L157 492.222L158 492.75L160 493.611L161 493.972L162 494.333L163 494.667L165 495.389L167 496.194L168 496.611L170 497.333L171 497.667L174 498.667L177 499.667L178 500L180 500.611L182 501.139L183 501.389L184 501.694L185 502L187 502.667L188 503L190 503.583L192 504L194 504.389L196 504.861L197 505.139L199 505.639L200 505.861L201 506.139L203 506.611L204 506.806L206 507.194L208 507.611L210 507.944L211 508.056L213 508.389L214 508.611L216 508.944L217 509.056L219 509.389L220 509.611L222 509.917L223 509.972L225 510.083L227 510.389L228 510.611L230 510.917L231 510.972L232 511L234 511L236 511.028L237 511.083L239 511.389L240 511.611L242 511.917L243 511.972L245 512L247 512L254 512L264 512L267 512L269 511.972L270 511.917L272 511.611L273 511.389L275 511.083L276 511.028L277 511L279 511L281 510.972L282 510.917L284 510.611L285 510.389L287 510.083L289 509.917L290 509.778L292 509.389L294 509.083L296 508.917L297 508.778L299 508.389L301 508.056L302 507.944L304 507.611L306 507.194L308 506.806L309 506.611L311 506.139L312 505.861L313 505.639L315 505.139L316 504.861L318 504.389L320 504L322 503.583L324 503L325 502.667L327 502L328 501.694L329 501.389L330 501.139L332 500.611L334 500L335 499.667L338 498.667L341 497.667L342 497.333L344 496.611L345 496.194L347 495.389L349 494.667L350 494.333L351 493.972L352 493.611L354 492.75L355 492.222L356 491.778L357 491.25L358 490.833L359 490.389L361 489.611L362 489.167L363 488.75L364 488.222L366 487.222L367 486.778L368 486.222L369 485.778L370 485.222L371 484.778L373 483.778L374 483.222L375 482.778L376 482.222L377 481.778L379 480.75L381 479.611L383 478.389L385 477.25L386 476.75L388 475.611L389 474.972L390 474.333L391 473.667L393 472.333L394 471.667L396 470.389L398 469.167L399 468.556L400 467.833L402 466.389L403 465.694L405 464.306L406 463.611L408 462.139L409 461.361L410 460.639L411 459.861L412 459.139L414 457.639L415 456.861L417 455.361L418 454.611L420 452.917L422 451.028L423 450.083L425 448.389L426 447.611L428 445.917L429 444.972L431 443L433 441L436 438L442 432L444 430L444.972 429L445.917 428L447.611 426L448.389 425L450.083 423L451 422L452.778 420L454.389 418L455.194 417L456.806 415L457.611 414L458.389 413L460 411L461.583 409L463 407L463.694 406L464.389 405L465.139 404L466.611 402L467.972 400L469.194 398L469.806 397L470.389 396L471.667 394L472.333 393L473.667 391L474.333 390L474.972 389L475.611 388L476.75 386L477.25 385L478.389 383L479.611 381L480.75 379L481.778 377L482.222 376L482.778 375L483.222 374L483.778 373L484.778 371L485.222 370L485.778 369L486.778 367L487.222 366L487.778 365L488.222 364L488.778 363L489.75 361L490.167 360L490.611 359L491.389 357L491.806 356L492.611 354L493.389 352L493.806 351L494.611 349L495.389 347L496.194 345L496.611 344L496.972 343L497.333 342L497.667 341L498.667 338L499.667 335L500 334L500.611 332L500.861 331L501.389 329L501.694 328L502 327L502.667 325L503 324L503.611 322L503.861 321L504.139 320L504.611 318L504.806 317L505.194 315L505.389 314L505.639 313L505.861 312L506.139 311L506.611 309L506.806 308L507.194 306L507.611 304L507.944 302L508.056 301L508.389 299L508.611 298L508.944 296L509.056 295L509.389 293L509.611 292L509.917 290L509.972 289L510.083 287L510.389 285L510.611 284L510.917 282L510.972 281L511 279L511 277L511.028 276L511.083 275L511.389 273L511.611 272L511.917 270L511.972 269L512 267L512 265L512 258L512 248L512 245L511.972 243L511.917 242L511.611 240L511.389 239L511.083 237L511.028 236L511 235L511 233L510.972 231L510.917 230L510.611 228L510.389 227L510.083 225L509.972 223L509.917 222L509.611 220L509.389 219L509.056 217L508.944 216L508.611 214L508.389 213L508.056 211L507.944 210L507.611 208L507.194 206L506.806 204L506.611 203L506.139 201L505.861 200L505.639 199L505.389 198L505.194 197L504.806 195L504.611 194L504.139 192L503.861 191L503.611 190L503 188L502.667 187L502 185L501.694 184L501.389 183L500.861 181L500.611 180L500 178L499.667 177L498.667 174L497.667 171L497.333 170L496.972 169L496.611 168L496.194 167L495.389 165L494.611 163L493.806 161L493.389 160L492.611 158L491.806 156L491.389 155L490.611 153L490.167 152L489.75 151L488.778 149L488.222 148L487.778 147L487.222 146L486.778 145L485.778 143L485.222 142L484.778 141L483.778 139L483.222 138L482.778 137L482.222 136L481.778 135L480.75 133L479.611 131L478.389 129L477.25 127L476.75 126L475.611 124L474.972 123L474.333 122L473.667 121L472.333 119L471.667 118L470.389 116L469.194 114L468.611 113L467.306 111L465.861 109L465.139 108L464.389 107L463 105L461.583 103L460.806 102L459.194 100L458.389 99L457.611 98L456.806 97L455.194 95L454.389 94L452.778 92L451 90L450.083 89L448.389 87L447.611 86L445.917 84L444.972 83L444 82L442 80L437 75L432 70L430 68L429 67.0278L428 66.0833L426 64.3889L425 63.6111L423 61.9167L422 60.9722L420 59.0833L418 57.3889L417 56.6389L415 55.1389L414 54.3611L412 52.8611L411 52.1389L410 51.3611L409 50.6389L408 49.8611L406 48.3889L405 47.6945L403 46.3055L402 45.6111L400 44.1667L399 43.4445L398 42.8333L396 41.6111L394 40.3333L393 39.6667L391 38.3333L390 37.6667L389 37.0278L388 36.3889L386 35.25L385 34.75L383 33.6111L381 32.3889L379 31.25L377 30.2222L376 29.7778L375 29.2222L374 28.7778L373 28.2222L371 27.2222L370 26.7778L369 26.2222L368 25.7778L367 25.2222L366 24.7778L364 23.7778L363 23.25L362 22.8333L361 22.3889L359 21.6111L358 21.1667L357 20.75L356 20.2222L355 19.7778L354 19.25L352 18.3889L351 18.0278L350 17.6667L349 17.3333L347 16.6111L345 15.8055L344 15.3889L342 14.6667L341 14.3333L338 13.3333L335 12.3333L334 12L332 11.3889L330 10.8611L329 10.6111L328 10.3055L327 10L325 9.33334L324 9L322 8.41666L320 8L318 7.61111L316 7.13889L315 6.86111L313 6.36111L312 6.13889L311 5.86111L309 5.38889L308 5.19446L306 4.80554L304 4.38889L302 4.05554L300 3.77777L298 3.38889L296 3.08334L294 2.91666L293 2.77777L291 2.38889L290 2.22223L289 2.08334L287 1.91666L286 1.77777L284 1.38889L282 1.08334L281 1.02777L279 1L277 1L276 0.972229L275 0.916656L273 0.611115L272 0.388885L270 0.0833435L269 0.027771L267 0L266 0L264 0L253 0L247 0L245 0L244 0L242 0.0833435L240 0.388885M252 17.2222L253 17.0833L255 17L256 17L258 17.0833L260 17.3889L262 17.7778L263 17.9167L265 18L266 18L268 18L274 18L276 18L277 18.0278L278 18.0833L280 18.3889L281 18.6111L283 18.9167L285 19.0278L286 19.0833L288 19.3889L289 19.6111L291 19.9445L292 20.0555L294 20.3889L295 20.6111L297 20.9445L298 21.0555L300 21.3889L301 21.6111L302 21.8055L304 22.1945L305 22.3889L306 22.6111L307 22.8055L309 23.1945L310 23.3889L312 23.8611L313 24.1389L314 24.3611L315 24.6389L316 24.8611L318 25.3889L319 25.6945L321 26.3055L322 26.6111L324 27.1389L325 27.3889L327 28L329 28.6667L334 30.3333L337 31.3333L338 31.6667L339 32.0278L340 32.3889L342 33.25L343 33.75L344 34.1667L345 34.6111L346 34.9722L348 35.6667L350 36.3889L351 36.8333L352 37.25L354 38.2222L355 38.7778L356 39.2222L357 39.7778L358 40.2222L359 40.7778L361 41.7778L362 42.2222L363 42.7778L364 43.2222L366 44.2222L367 44.7778L368 45.2222L369 45.7778L370 46.2222L372 47.25L373 47.8333L374 48.3889L376 49.6111L377 50.1945L379 51.3889L381 52.6111L383 53.8055L384 54.3889L386 55.6667L388 57L390 58.3333L391 59L393 60.3889L394 61.1389L396 62.6111L397 63.3055L398 64L400 65.4167L401 66.1945L403 67.8055L405 69.3889L407 71L409 72.6111L410 73.3889L412 75.0833L413 76.0278L415 78L416 78.9722L417 79.9167L419 81.6111L420 82.3889L422 84.0833L424 86L426 88L427.917 90L428.778 91L430.389 93L432.083 95L433.028 96L435 98L435.972 99L436.917 100L438.611 102L439.389 103L441 105L442.611 107L444.194 109L445.806 111L446.583 112L448 114L448.667 115L450 117L450.694 118L451.389 119L452.139 120L453.611 122L454.306 123L455 124L456.333 126L457.611 128L458.194 129L459.389 131L460.611 133L461.194 134L462.389 136L463.611 138L464.167 139L464.75 140L465.778 142L466.222 143L466.778 144L467.222 145L467.778 146L468.778 148L469.222 149L469.778 150L470.222 151L471.222 153L471.778 154L472.222 155L472.778 156L473.222 157L473.778 158L474.75 160L475.167 161L475.611 162L476.389 164L477.194 166L477.611 167L478.389 169L479.194 171L479.611 172L479.972 173L480.333 174L481 176L482.333 180L483.333 183L484 185L484.611 187L484.861 188L485.389 190L485.694 191L486.306 193L486.611 194L487.139 196L487.361 197L487.639 198L487.861 199L488.139 200L488.611 202L488.806 203L489.194 205L489.389 206L489.611 207L489.806 208L490.194 210L490.389 211L490.611 212L490.944 214L491.056 215L491.389 217L491.611 218L491.944 220L492.056 221L492.389 223L492.611 224L492.917 226L492.972 227L493.083 229L493.389 231L493.611 232L493.917 234L493.972 235L494 236L494 238L494 244L494 245L494.028 247L494.083 248L494.389 250L494.611 251L494.917 253L494.972 254L495 256L494.972 258L494.917 259L494.611 261L494.389 262L494.083 264L494.028 265L494 267L494 272L494 273L493.972 275L493.917 276L493.611 278L493.389 279L493.083 281L493.028 282L493 283L492.972 285L492.917 286L492.611 288L492.389 289L492.056 291L491.778 293L491.389 295L491.056 297L490.944 298L490.611 300L490.389 301L490.194 302L489.806 304L489.611 305L489.389 306L489.194 307L488.806 309L488.611 310L488.139 312L487.861 313L487.639 314L487.361 315L487.139 316L486.611 318L486.306 319L485.694 321L485.389 322L484.861 324L484.611 325L484 327L483.333 329L481.667 334L480.667 337L480.333 338L479.972 339L479.611 340L479.194 341L478.389 343L477.611 345L476.75 347L476.25 348L475.389 350L474.611 352L473.75 354L472.778 356L472.222 357L471.778 358L471.222 359L470.778 360L469.778 362L469.222 363L468.778 364L467.778 366L467.222 367L466.778 368L466.222 369L465.778 370L464.75 372L464.167 373L463.611 374L462.389 376L461.194 378L460.611 379L459.389 381L458.194 383L457.611 384L456.333 386L455 388L454.306 389L453.611 390L452.139 392L451.389 393L450.694 394L450 395L448.667 397L448 398L446.583 400L445.806 401L444.194 403L442.611 405L441 407L439.389 409L438.611 410L436.917 412L435.972 413L434 415L433.028 416L432.083 417L430.389 419L428.778 421L427.917 422L426 424L424 426L422 427.917L420 429.611L419 430.389L417 432.083L416 433.028L415 434L413 435.972L412 436.917L410 438.611L409 439.389L407 441L405 442.611L403 444.194L401 445.806L400 446.583L398 448L397 448.694L396 449.389L394 450.861L393 451.611L391 453L390 453.667L388 455L386 456.333L384 457.611L383 458.194L381 459.389L379 460.611L377 461.806L376 462.389L374 463.611L373 464.167L372 464.75L370 465.778L369 466.222L368 466.778L367 467.222L366 467.778L364 468.778L363 469.222L362 469.778L361 470.222L359 471.222L358 471.778L357 472.222L356 472.778L355 473.222L354 473.778L352 474.75L351 475.167L350 475.611L348 476.333L346 477.028L345 477.389L344 477.833L343 478.25L342 478.75L340 479.611L339 479.972L338 480.333L337 480.667L334 481.667L329 483.333L327 484L325 484.611L324 484.861L322 485.389L321 485.694L319 486.306L318 486.611L316 487.139L315 487.361L314 487.639L313 487.861L312 488.139L310 488.611L309 488.806L307 489.194L306 489.389L305 489.611L304 489.806L302 490.194L301 490.389L300 490.611L298 490.944L297 491.056L295 491.389L293 491.778L291 492.056L289 492.389L288 492.611L286 492.917L284 493.028L283 493.083L281 493.389L280 493.611L278 493.917L277 493.972L275 494L274 494L268 494L266 494L264 494.028L263 494.083L261 494.389L260 494.611L258 494.917L256 495L254 494.972L253 494.917L251 494.611L250 494.389L248 494.083L246 494L245 494L243 494L238 494L236 494L235 493.972L234 493.917L232 493.611L231 493.389L229 493.083L227 492.972L226 492.917L224 492.611L223 492.389L221 492.056L220 491.944L218 491.611L217 491.389L215 491.056L214 490.944L212 490.611L211 490.389L210 490.194L208 489.806L207 489.611L206 489.389L205 489.194L203 488.806L202 488.611L200 488.139L199 487.861L198 487.639L197 487.361L196 487.139L194 486.611L193 486.306L191 485.694L190 485.389L188 484.861L187 484.611L185 484L183 483.333L178 481.667L175 480.667L174 480.333L173 479.972L172 479.611L170 478.75L169 478.25L168 477.833L167 477.389L166 477.028L164 476.333L162 475.611L161 475.167L160 474.75L158 473.778L157 473.222L156 472.778L155 472.222L154 471.778L152 470.778L151 470.222L150 469.778L148 468.778L147 468.222L146 467.778L145 467.222L144 466.778L143 466.222L142 465.778L140 464.75L139 464.167L138 463.611L136 462.389L135 461.806L133 460.611L131 459.389L129 458.194L128 457.611L126 456.333L124 455L122 453.667L121 453L119 451.611L118 450.861L116 449.389L115 448.694L114 448L112 446.583L111 445.806L109 444.194L107 442.611L105 441L103 439.389L102 438.611L100 436.917L99 435.972L98 435L96 433.028L95 432.083L93 430.389L92 429.611L90 427.917L88 426L86 424L84.0833 422L83.2222 421L81.6111 419L79.9167 417L78.9722 416L77 414L76.0278 413L75.0833 412L73.3889 410L72.6111 409L71 407L69.3889 405L67.8056 403L66.1944 401L65.4167 400L64 398L63.3333 397L62 395L61.3056 394L60.6111 393L59.8611 392L58.3889 390L57.6944 389L57 388L55.6667 386L54.3889 384L53.8056 383L52.6111 381L51.3889 379L50.8056 378L49.6111 376L48.3889 374L47.8333 373L47.25 372L46.2222 370L45.7778 369L45.2222 368L44.7778 367L44.2222 366L43.2222 364L42.7778 363L42.2222 362L41.2222 360L40.7778 359L40.2222 358L39.7778 357L39.2222 356L38.25 354L37.3889 352L36.6111 350L35.75 348L35.25 347L34.3889 345L33.6111 343L32.8056 341L32.3889 340L32.0278 339L31.6667 338L31.3333 337L30.3333 334L28.6667 329L28 327L27.3889 325L27.1389 324L26.6111 322L26.3056 321L25.6944 319L25.3889 318L24.8611 316L24.6389 315L24.3611 314L24.1389 313L23.8611 312L23.3889 310L23.1944 309L22.8056 307L22.6111 306L22.3889 305L22.1944 304L21.8056 302L21.6111 301L21.3889 300L21.0556 298L20.9444 297L20.6111 295L20.2222 293L19.9444 291L19.6111 289L19.3889 288L19.0833 286L19.0278 285L19 284L18.9722 282L18.9167 281L18.6111 279L18.3889 278L18.0833 276L18.0278 275L18 273L18 271L18 268L18 266L17.9167 264L17.6111 262L17.3889 261L17.0833 259L17.0278 258L17 256L17 255L17.0833 253L17.3889 251L17.6111 250L17.9167 248L17.9722 247L18 245L18 244L18 238L18 236L18.0278 235L18.0833 234L18.3889 232L18.6111 231L18.9167 229L19.0278 227L19.0833 226L19.3889 224L19.6111 223L19.9444 221L20.0556 220L20.3889 218L20.6111 217L20.9444 215L21.0556 214L21.3889 212L21.6111 211L21.8056 210L22.1944 208L22.3889 207L22.6111 206L22.8056 205L23.1944 203L23.3889 202L23.8611 200L24.1389 199L24.3611 198L24.6389 197L24.8611 196L25.3889 194L25.6944 193L26.3056 191L26.6111 190L27.1389 188L27.3889 187L28 185L28.6667 183L29.6667 180L31 176L31.6667 174L32.0278 173L32.3889 172L32.8056 171L33.6111 169L34.3889 167L34.8056 166L35.6111 164L36.3889 162L36.8333 161L37.25 160L38.2222 158L38.7778 157L39.2222 156L40.2222 154L40.7778 153L41.2222 152L41.7778 151L42.2222 150L42.7778 149L43.2222 148L44.2222 146L44.7778 145L45.2222 144L45.7778 143L46.2222 142L47.25 140L47.8333 139L48.3889 138L49.6111 136L50.8056 134L51.3889 133L52.6111 131L53.8056 129L54.3889 128L55.6667 126L57 124L57.6944 123L58.3889 122L59.8611 120L60.6111 119L61.3056 118L62 117L63.3333 115L64 114L65.4167 112L66.1944 111L67.8056 109L69.3889 107L71 105L72.6111 103L73.3889 102L75.0833 100L76.0278 99L78 97L78.9722 96L79.9167 95L81.6111 93L82.3889 92L84.0833 90L85.0278 89L87 87L89 85.0278L90 84.0833L92 82.3889L93 81.6111L95 79.9167L96 78.9722L98 77L99 76.0278L100 75.0833L102 73.3889L103 72.6111L105 71L107 69.3889L109 67.8055L111 66.1945L112 65.4167L114 64L115 63.3055L116 62.6111L118 61.1389L119 60.3889L121 59L122 58.3333L124 57L126 55.6667L128 54.3889L129 53.8055L131 52.6111L133 51.3889L135 50.1945L136 49.6111L138 48.3889L139 47.8333L140 47.25L142 46.2222L143 45.7778L144 45.2222L145 44.7778L146 44.2222L148 43.2222L149 42.7778L150 42.2222L151 41.7778L153 40.7778L154 40.2222L155 39.7778L156 39.2222L157 38.7778L158 38.2222L160 37.25L161 36.8333L162 36.3889L164 35.6667L166 34.9722L167 34.6111L169 33.75L170 33.25L171 32.8333L172 32.3889L173 32.0278L175 31.3333L177 30.6667L180 29.6667L183 28.6667L185 28L187 27.3889L188 27.1389L190 26.6111L191 26.3055L193 25.6945L194 25.3889L196 24.8611L197 24.6389L199 24.1389L200 23.8611L202 23.3889L203 23.1945L205 22.8055L206 22.6111L207 22.3889L208 22.1945L210 21.8055L211 21.6111L212 21.3889L214 21.0555L215 20.9445L217 20.6111L218 20.3889L220 20.0555L221 19.9445L223 19.6111L224 19.3889L226 19.0833L227 19.0278L229 18.9167L231 18.6111L232 18.3889L234 18.0833L235 18.0278L236 18L238 18L244 18L245 18L247 17.9722L248 17.9167L250 17.6111L252 17.2222M213 253L277 189L281 185L284 182L286 180L287 179L288 178L289.917 176L291.528 174L292.139 173L292.722 172L293.528 170L293.917 168L293.889 166L293.694 165L292.889 163.028L291.583 161.25L290.778 160.5L289.917 159.944L288.972 159.5L287 159.083L286 159.028L284 159.083L282 159.5L281 159.944L280 160.5L278 162.083L276 164L274 166L270 170L266 174L215 225L201 239L199 241L197.028 243L196.083 244L194.472 246L193.861 247L192.861 249L192.25 251L192.111 252L192.25 254L192.5 255L193.5 257L195.083 259L197 261L198 262L199 263L202 266L209 273L234 298L243 307L246 310L247 311L248.917 313L250.611 314.917L251.389 315.778L252.222 316.611L254.028 318.222L255 319.083L256.917 321L257.778 321.972L259.389 323.778L260.222 324.611L261.083 325.389L263 327.083L264.917 329L265.778 329.972L267.389 331.778L268.222 332.611L269.944 334.194L271.583 335.806L273 337.361L273.694 338.139L275.222 339.639L276.083 340.389L278 342.056L280 343.75L281 344.5L283 345.5L285 345.889L286 345.889L288 345.5L289 345.056L289.972 344.5L290.917 343.75L291.75 342.917L292.5 341.972L293.5 340L293.75 339L293.944 337L293.917 336L293.5 334L293.056 333L292.5 332L290.917 330L289.972 329L288 327L286 325L281 320L237 276L223 262L220 259L219 258L217 256.028L216.056 255.111L215.056 254.306L214.5 253.778L213 253z"/>
</svg>
