<?xml version="1.0" standalone="yes"?>
<svg xmlns="http://www.w3.org/2000/svg" width="640" height="640">
<path style="fill:#010101; stroke:none;" d="M0 0L0 640L640 640L640 0L0 0z"/>
<path style="fill:#fefefd; stroke:none;" d="M98 123L98 502L525 502L525 467L148 467L148 123L98 123M167 123L167 439L516 439L516 398L226 398L226 123L167 123M291 175C291.988 177.528 293.697 180.21 293.643 183C293.496 190.579 284.673 200.517 280 206C278.058 200.875 272.805 196.339 271.823 191.002C271.404 188.728 272.519 186.199 273 184C264.459 182.414 255.658 183 247 183C247.837 188.266 252.286 191.752 255.279 196.004C262.955 206.908 272.032 217.941 269.852 232C269.198 236.216 265.744 239.232 264 243C271.903 243 280.275 242.161 288 244C279.997 246.366 270.32 245 262 245L262 247L293 247C291.59 241.587 286.045 238.529 285.111 233C283.275 222.133 287.813 215.613 293.556 207C298.207 200.023 302.497 192.879 307.306 186C309.586 182.738 321.335 171.364 315 170C315.986 168.521 316 168.797 316 167C307.854 167.833 298.68 172.059 291 175M537 175C537.988 177.528 539.697 180.211 539.643 183C539.498 190.433 530.607 200.595 526 206C524.057 200.875 518.805 196.339 517.823 191.002C517.404 188.728 518.519 186.199 519 184C509.831 182.298 500.296 183 491 183C492.94 186.986 496.394 189.527 499.1 193.015C507.67 204.057 518.127 217.329 515.852 232C515.198 236.216 511.744 239.232 510 243C517.903 243 526.275 242.161 534 244C525.997 246.366 516.32 245 508 245L508 247L539 247C537.525 242.659 534.164 240.014 532.178 236C530.292 232.187 530.592 226.142 531.133 222C531.771 217.125 535.468 213.023 538.05 209C543.2 200.978 548.159 192.728 553.745 185C557.275 180.118 562.354 175.877 564 170C561.876 169.101 561.899 169.124 561 167C553.092 168.405 544.538 172.114 537 175z"/>
<path style="fill:#010101; stroke:none;" d="M314 170C312.138 171.945 310.532 173.794 309 176C311.408 174.263 313.303 172.905 314 170M560 170L557 174C558.756 172.623 559.54 172.106 560 170M555 175L556 176L555 175z"/>
<path style="fill:#fefefd; stroke:none;" d="M313 183C314.468 186.172 317.211 188.723 318.397 192C320.086 196.666 319 203.088 319 208C312.181 209.239 309.744 212.497 312 219C314.584 218.678 316.602 218.027 319 217C319 222.113 320.246 229.138 318.397 233.961C317.068 237.425 313.637 239.635 312 243C319.903 243 328.275 242.161 336 244C328.845 246.115 320.433 245 313 245L313 247L342 247C340.281 242.555 336.605 239.37 334.857 235C332.773 229.788 334 222.534 334 217C336.692 217.01 339.466 216.847 341.996 217.938C345.699 219.533 347.892 222.349 352 223C352 217.398 352.443 211.595 351.941 206.015C351.729 203.651 350.897 200.858 347.981 200.948C342.874 201.104 339.818 207.561 334 208L334 200.998C334.004 199.074 333.803 196.935 334.318 195.059C336.966 185.417 350.993 195.712 356 197L355 201L359 201C360.733 195.112 365.09 190.761 367 185C372.687 189.478 376.217 200.696 371.972 207.625C369.504 211.654 365.639 213.192 364 218C367.484 219.766 369.425 219.488 373 218C373 223.178 374.196 230.088 372.397 234.996C371.286 238.029 368.577 240.226 367 243C374.593 243 382.577 242.233 390 244C383.413 245.947 375.839 245 369 245L369 247L395 247C393.516 242.598 389.831 239.41 388.514 235C387.064 230.145 388 224.031 388 219L402 219C402 223.942 403.053 230.291 401.401 235C400.402 237.849 398.251 240.248 397 243C404.283 243 411.879 242.305 419 244C412.413 245.947 404.839 245 398 245L398 247L452 247C450.613 242.818 448.408 239.776 445 237L457 222C459.184 227.068 461.926 232.239 466 236C463.87 238.278 462.299 240.181 461 243C469.212 243 477.974 242.089 486 244C478.279 246.282 469.025 245 461 245L461 247L493 247C490.574 242.135 485.896 239.021 482.488 234.826C478.601 230.042 475.662 224.316 472.576 219C470.791 215.926 467.125 211.804 468.213 208C469.599 203.152 475.687 196.328 479.515 193.104C482.522 190.572 485.899 189.436 488 186L484 186C485.036 184.814 485.339 184.396 486 183L464 183C465.3 185.763 466.553 187.164 469 189C466.155 192.584 463.643 196.205 460 199C458.407 195.635 456.577 192.692 454 190C456.097 188.074 457.245 186.744 458 184C448.341 182.779 438.733 183 429 183C430.706 186.121 433.334 187.68 435.816 190.184C440.332 194.742 448.038 204.604 449.289 211C450.029 214.781 446.216 218.273 444.119 221C440.595 225.581 437.221 230.799 432.91 234.674C429.482 237.756 425.343 239.81 422 243C416.571 231.836 418 220.27 418 208C418 203.111 416.947 196.763 418.563 192.093C419.477 189.454 421.762 187.488 423 185C414.677 182.027 405.763 183 397 183C400.729 189.681 402.053 193.137 401.999 201C401.98 203.722 402.262 207.105 399.682 208.821C396.409 210.998 391.567 209.451 388 209C388 204.058 386.947 197.709 388.599 193C389.598 190.151 391.749 187.752 393 185C383.44 181.585 374.69 184.09 365 184.09C362.663 184.09 360.364 183.106 357.985 183.019C343.034 182.468 327.963 183 313 183z"/>
<path style="fill:#010101; stroke:none;" d="M549 183L550 184L549 183M362 185L363 186L362 185M453 185L454 186L453 185M481 187L482 188L481 187M330 188C333.959 189.661 338.737 189 343 189C339.041 187.339 334.264 188 330 188M450 188L451 189L450 188M265 189L266 190L265 189M357 193L358 194L357 193M284 213L285 214L284 213M317.667 213.333C317.222 213.778 318.278 213.722 318.333 213.667C318.778 213.222 317.722 213.278 317.667 213.333M330 213L330 215L340 215C336.96 212.697 333.732 213.003 330 213M315 214L316 215L315 214M385 215L386 216L385 215M389 216C392.432 217.44 396.3 217 400 217C396.568 215.56 392.7 216 389 216M423 243C428.441 247.122 439.353 245 446 245L446 243L423 243z"/>
<path style="fill:#fefefd; stroke:none;" d="M371 289C371.911 291.208 373.485 293.578 373.655 296.002C373.951 300.225 370.969 304.909 370 309C362.834 307.475 359.946 312.749 358 319C360.469 319.426 362.645 320.132 365 321C363.05 326.765 360.934 333.013 357.363 338C354.527 341.96 350.417 344.779 348 349C355.903 349 364.275 348.161 372 350C365.129 352.031 357.137 351 350 351L350 353L377 353C375.607 348.791 372.337 345.349 371.398 341C370.52 336.93 372.104 332.921 373 329C375.817 332.379 377.656 335.715 382 337C381.014 338.479 381 338.203 381 340C385.648 339.204 387.871 335.287 391 332C391.708 334.99 394.387 339.512 393.448 342.536C392.723 344.872 390.166 346.808 389 349C397.212 349 405.974 348.089 414 350C407.129 352.031 399.137 351 392 351L392 353L421 353C418.764 348.583 414.485 346.039 411.649 341.999C407.877 336.626 406.02 329.199 404 323L413 324C411.114 317.451 407.443 306.853 399 311C397.972 306.664 394.596 301.483 395.102 297.002C395.375 294.58 397.058 292.213 398 290C388.992 288.862 380.078 289 371 289z"/>
<path style="fill:#010101; stroke:none;" d="M381 309C378.289 314.841 378.604 317.576 382 323C388.246 320.481 384.39 312.843 381 309M399 320C401.89 321.213 404.874 320.998 408 321C405.044 318.794 402.531 319.356 399 320M378 323L379 324L378 323z"/>
</svg>
