<?xml version="1.0" standalone="yes"?>
<svg xmlns="http://www.w3.org/2000/svg" width="298" height="219">
<path style="fill:#342c2a; stroke:none;" d="M39 103C48.2321 103 72.1189 107.268 79.3408 101.283C88.9732 93.3 91.5647 68.4441 106.003 68.0146C126.296 67.411 146.697 68 167 68C174.664 68 186.743 65.7105 193.857 68.7173C205.126 73.4797 207.492 93.6853 216.659 101.283C223.881 107.268 247.768 103 257 103C257 96.3994 258.643 87.2255 256.283 81C250.393 65.4664 227.091 55.3426 213 49.2837C173.049 32.1057 131.946 32.8203 91 46.6695C63.6253 55.9285 39 72.5863 39 103M55 169L69 169L69 176L90 176C91.1478 165.107 108.857 169 117 169L204 169L204 175L224 175L224 169L241 169C241 141.878 222.814 120.54 208.684 98C199.803 83.8329 196.952 73 179 73L179 81L118 81L118 73C113.363 73 106.322 71.6978 102.431 74.7173C95.6657 79.9675 91.2059 91.7869 86.6843 99C72.7099 121.293 55 142.18 55 169M126 94L126 101L136 101L136 106L121 106L121 94L126 94M145 94L145 102L155 102L155 106L140 106L140 94L145 94M164 102L173 102L173 106L159 106L159 94C163.53 95.1796 163.901 97.6062 164 102M126 110L126 116L136 116L136 121L121 121L121 110L126 110M145 110L145 117L155 117L155 122L140 122L140 110L145 110M164 110L164 117L174 117L174 122L159 122L159 110L164 110M126 126L126 133L136 133L136 137L121 137L121 126L126 126M145 126L145 133L155 133L155 138L140 138L140 126L145 126M164 126L164 133L173 133L173 138L159 138L159 126L164 126M126 142L126 148L136 148L136 153L121 153L121 142L126 142M145 142L145 149L155 149C153.543 155.867 145.614 154 140 154L140 142L145 142M164 142L164 149L174 149C172.543 155.867 164.614 154 159 154L159 142L164 142z"/>
</svg>
