<?xml version="1.0" standalone="yes"?>
<svg xmlns="http://www.w3.org/2000/svg" width="255" height="255">
<path style="fill:#090604; stroke:none;" d="M6 124L88 124C88 96.1805 92.889 65.1311 114.003 45.0629C120.972 38.4393 149.172 25.9057 155.155 40.0741C159.097 49.4065 156.094 65.9192 155.997 76C155.958 80.0313 155.836 84.3196 151.843 86.479C143.99 90.7264 131.064 83.9446 124.494 90.4123C117.414 97.3813 119 114.885 119 124L249 124C244.909 77.103 219.583 36.602 175 18.0201C99.9373 -13.2656 7.14809 39.9755 6 124M6 131C6.18902 144.834 9.41507 159.204 14.6103 172C52.535 265.412 185.96 269.283 234.56 184C243.591 168.152 248.051 149.122 249 131L119 131C119 139.956 117.456 157.726 124.494 164.479C131.273 170.984 143.898 164.224 151.843 168.521C155.836 170.68 155.958 174.969 155.997 179C156.094 189.081 159.097 205.594 155.155 214.926C149.139 229.172 121.054 216.334 114.001 209.875C92.446 190.136 88 158.727 88 131L6 131z"/>
</svg>
