<?xml version="1.0" standalone="yes"?>
<svg xmlns="http://www.w3.org/2000/svg" width="500" height="500">
<path style="fill:#010101; stroke:none;" d="M137 183L271 183C301.307 183 332.375 181.108 360 195.782C398.497 216.231 423.076 260.333 417.714 304C414.944 326.551 405.108 346.987 390.282 364C381.874 373.648 371.328 381.882 360 387.88C331.097 403.185 298.65 401 267 401L122 401L81 401C73.0505 401 64.6391 400.134 57 402.761C23.6095 414.241 20.7198 462.078 52 477.73C63.8722 483.671 77.1001 482 90 482L158 482L262 482C282.072 482 303.023 483.733 323 481.83C368.21 477.525 410.135 459.761 442.996 427.961C502.787 370.099 515.717 277.49 478.731 204C467.909 182.497 451.971 163.659 434 147.845C419.425 135.019 402.028 123.814 384 116.452C365.53 108.91 345.879 104.063 326 102.17C307.656 100.423 288.43 102 270 102L143 102C150.783 90.9512 162.547 83.7827 166.243 70C173.962 41.2134 149.22 12.2583 119 18.669C103.96 21.8594 94.3831 33.6169 84 44L24 104C12.1039 115.896 -0.711098 127.625 0.104167 146C0.894266 163.808 12.2094 174.201 24 186.086C36.6981 198.885 49.5703 211.513 62.1952 224.385C71.3034 233.671 80.7085 242.659 89.8341 251.925C98.6694 260.897 108.566 271.208 122 271.957C131.273 272.474 139.815 271.32 148 266.662C164.826 257.086 171.659 235.995 165.637 218C160.846 203.681 147.318 193.318 137 183z"/>
</svg>
