<?xml version="1.0" standalone="yes"?>
<svg xmlns="http://www.w3.org/2000/svg" width="255" height="255">
<path style="fill:#030305; stroke:none;" d="M117 0.424377L114 0.834106C112.334 0.996124 110.662 1.07339 109 1.28549L106 1.75386C104.328 2.03127 102.657 2.30316 101 2.66203C99.6594 2.95235 98.3289 3.29057 97 3.62962C95.6603 3.97144 94.3252 4.32582 93 4.72067C90.985 5.32109 88.9945 6.00235 87 6.66667C84.3229 7.55833 81.6229 8.40588 79 9.44984L76 10.7315C74.6544 11.3302 73.3219 11.9527 72 12.6019L68 14.7029C65.9984 15.7557 63.9637 16.7493 62 17.8727C60.2911 18.8503 58.6444 19.9227 57 21.0039L54 23.0363C50.5242 25.4802 47.2596 28.1988 44 30.9198C41.6276 32.9001 39.2272 34.8517 37.0394 37.0394C36.0852 37.9934 35.1758 38.9873 34.2855 40.0008L31.7292 43C30.0258 44.9872 28.2826 46.9384 26.6682 49C25.1471 50.9423 23.7364 52.9645 22.3441 55L20.3449 58C19.2807 59.6361 18.252 61.2889 17.3117 63L15.7562 66L13.7531 70L11.7562 74C10.9487 75.6497 10.143 77.2964 9.45293 79C8.78816 80.641 8.23415 82.3236 7.66744 84L6.33333 88C5.67187 89.9917 5.0035 91.9814 4.42747 94L3.62963 97L2.65123 101L1.80478 105L1.43904 107C1.2828 107.998 1.16272 108.993 1.08565 110L0.831019 114C0.697099 115.339 0.467058 116.667 0.285494 118L0.0895062 120C-0.00162143 121.331 0.00488587 122.667 0.000771605 124L0 128L0.000771605 132C0.00488601 133.333 -0.001624 134.669 0.0895062 136C0.227455 138.014 0.605255 139.997 0.844907 142L1.15509 145C1.36806 146.674 1.64427 148.336 1.92052 150L2.44907 153L3.1304 156C3.70655 158.347 4.32706 160.679 5.00077 163C5.48623 164.673 5.97708 166.344 6.51543 168C6.95319 169.347 7.46659 170.67 7.95293 172C8.44184 173.337 8.91538 174.681 9.45216 176C10.142 177.695 10.9327 179.343 11.706 181L13.6019 185L15.706 189C16.6011 190.678 17.4772 192.367 18.4529 194C20.3159 197.119 22.46 200.054 24.5795 203C25.5439 204.341 26.4799 205.709 27.5108 207L29.1451 209L31.7292 212C32.8726 213.336 33.989 214.696 35.1698 215.999C36.396 217.353 37.6745 218.658 39.0039 219.91C40.2934 221.126 41.6416 222.273 43 223.41C44.6517 224.792 46.3039 226.172 48 227.5C49.2997 228.517 50.6604 229.457 52 230.421C54.6295 232.311 57.2465 234.225 60 235.934C60.9852 236.546 61.9854 237.13 63 237.691L66 239.294L70 241.398L74 243.294C75.6568 244.067 77.3038 244.862 79 245.547C80.3155 246.078 81.6572 246.541 83 246.997L87 248.333C88.9945 248.998 90.985 249.679 93 250.279C94.3249 250.674 95.6597 251.032 97 251.37C98.6602 251.79 100.321 252.213 102 252.551L105 253.079C106.664 253.356 108.326 253.632 110 253.845L113 254.155C115.003 254.395 116.986 254.773 119 254.91C119.998 254.979 121 254.987 122 254.996L126 255L131 254.999C132.333 254.996 133.669 255.002 135 254.91C137.015 254.773 138.994 254.381 141 254.166L144 253.925L146 253.715L149 253.246C150.334 253.025 151.676 252.828 153 252.551C154.677 252.199 156.339 251.79 158 251.37L161 250.573C163.019 249.997 165.008 249.328 167 248.667L171 247.333C172.677 246.766 174.358 246.21 176 245.547C177.696 244.862 179.343 244.067 181 243.294C182.676 242.512 184.356 241.741 186 240.891L189 239.269C190.68 238.334 192.348 237.381 194 236.396C195.683 235.393 197.358 234.374 199 233.305C201.046 231.972 203.052 230.574 205 229.102C207.054 227.55 209.026 225.897 211 224.246C212.345 223.121 213.699 222.006 215 220.83C216.02 219.909 217.013 218.957 217.985 217.985C218.956 217.014 219.918 216.027 220.83 215C222.284 213.365 223.681 211.682 225.079 210L227.55 207C228.592 205.693 229.597 204.358 230.572 203C231.513 201.689 232.432 200.358 233.305 199C234.365 197.351 235.388 195.68 236.399 194C237.591 192.02 238.798 190.043 239.88 188C240.748 186.362 241.504 184.673 242.297 183C243.399 180.675 244.575 178.384 245.548 176C246.086 174.682 246.558 173.337 247.047 172C247.533 170.67 248.047 169.347 248.485 168C249.023 166.344 249.514 164.673 249.999 163C250.481 161.339 250.938 159.674 251.37 158C251.713 156.673 252.054 155.342 252.335 154L252.715 152L253.13 149L253.845 144L254.155 141C254.355 139.33 254.671 137.674 254.83 136C254.957 134.669 254.984 133.336 254.996 132L255 128L254.999 124C254.995 122.667 255.002 121.331 254.91 120L254.715 118C254.533 116.667 254.303 115.339 254.169 114C254.036 112.67 253.999 111.333 253.914 110L253.711 108C253.534 106.658 253.27 105.325 252.996 104L252.116 100L251.373 97C250.539 93.6466 249.738 90.2812 248.645 87C248.083 85.3134 247.451 83.6525 246.796 82C246.13 80.3188 245.444 78.6444 244.691 77L243.244 74L241.247 70C240.076 67.6589 238.928 65.3055 237.688 63C236.953 61.6327 236.137 60.3096 235.305 59L233.329 56C232.419 54.6478 231.494 53.3075 230.522 52C228.478 49.253 226.274 46.6276 224.08 44C222.1 41.6275 220.148 39.2272 217.961 37.0394C216.075 35.1538 214.023 33.4611 212 31.7292C210.343 30.3111 208.717 28.8562 207 27.5108C206.021 26.7438 205.009 26.0217 204 25.2948L201 23.1412C198.713 21.5099 196.415 19.8923 194 18.4529C192.371 17.4818 190.688 16.618 189 15.7562L185 13.7531C182.675 12.5905 180.364 11.3911 178 10.3086C176.355 9.55545 174.679 8.87599 173 8.2037C171.677 7.67419 170.345 7.1644 169 6.69522C167.68 6.23485 166.347 5.8033 165 5.42746C163.341 4.9644 161.671 4.54613 160 4.12654C158.004 3.62527 156.012 3.09752 154 2.66203C152.343 2.30325 150.672 2.03128 149 1.75386L146 1.28549L144 1.07484L141 0.834106L136 0.169754C134.669 0.0431061 133.336 0.0157166 132 0.00386047L128 0L124 0.000762939C122.665 0.00488281 121.333 0.0173798 120 0.0895081C118.993 0.143997 117.999 0.292862 117 0.424377M175 76L180.023 76.0147L181.977 76.0903L182.955 76.1782L184.841 76.4784L185.329 76.5679L187 77L187 84.0015L186.995 86.9992L186.981 87.9954L186.852 89.9414L186.682 90.8519L186.397 91.6821L185.972 92.3966L185.397 92.9722L183.852 93.6821L181.982 93.9414C181.004 93.9975 180.024 93.9951 179.045 93.9992L175 94L175 104L178.16 104.001C179.107 104.005 180.054 104.004 181 104.059C182.25 104.131 183.615 104.315 184.682 105.028L185.397 105.603L186.397 107.148L186.852 109.019L186.941 110.005L186.999 113L186.995 114.999L186.981 115.995L186.852 117.941L186.682 118.852L185.972 120.397L185.397 120.972L184.682 121.397L182.941 121.856L180.019 122.144L178.148 122.603L176.603 123.603L176.029 124.318L175.608 125.148L175.337 126.058L175.207 127.985L175.608 129.852L176.029 130.682L176.603 131.397L178.148 132.397L180.019 132.856L181.981 133.039C183.151 133.17 184.432 133.263 185.397 134.028L185.972 134.603L186.397 135.318L186.852 137.059C186.966 138.038 186.983 139.016 186.995 140.001L186.995 142.999L186.941 144.981L186.852 145.941L186.682 146.852L185.972 148.397L184.682 149.397L182.941 149.856L181 150.039L179.059 150.317L177.318 151.028L176.603 151.603L176.029 152.318L175.608 153.148L175.207 155.015L175.337 156.942L175.608 157.852L176.029 158.682L176.603 159.397L178.148 160.397L179.059 160.683L180.019 160.856L181.981 161.039L183.852 161.317L184.682 161.603L185.972 162.603L186.682 164.148L186.852 165.059L186.941 166.019L186.995 168.001L186.999 170L186.941 172.995L186.852 173.981L186.397 175.852L185.397 177.397L184.682 177.972C183.615 178.685 182.25 178.87 181 178.941C180.054 178.996 179.107 178.995 178.16 178.999L175 179L174.98 180.671L174.852 182.141L174.682 182.986L174.397 183.877L173.397 185.398L171.852 186.397L170.941 186.682L169.981 186.852L167.999 186.981L167 186.995L163 187L155 187L91 187L81 187L78 187L76 186.995L75.0008 186.981L73.0193 186.852L72.0586 186.682L71.1481 186.397L69.6034 185.397L69.0278 184.682L68.3179 182.941L68.1481 181.981L68.0193 179.999L68.0046 179L68 176L68 170L68 152L68 98L68 78C68.0034 76.3401 67.9624 74.6717 68.1481 73.0193C68.2878 71.7771 68.7005 70.5063 69.6034 69.6034L71.1481 68.6034L72.0586 68.3179L73.0193 68.1481L75.0008 68.0193L77 68.0008L82 68L93 68L155 68L163 68L167 68.0046L167.999 68.0193L169.981 68.1481L170.941 68.3179L171.852 68.6034L173.397 69.6019L174.397 71.1235L174.682 72.0139L174.852 72.8588L174.98 74.3295L175 76M114 125L112.329 125.228L110.84 125.638L108.975 126.352L106.998 127.262L104 128.742L101.001 130.139L99.0154 131.004L97.1088 131.904L96.2284 132.414L95.4336 132.994L94.179 134.394L93.4336 136.105L93.2284 137.043L93.044 139.004L93.0039 141L93 145L93.0008 147L93.0586 149.995L93.1481 150.981L93.6034 152.852L94.6034 154.397L95.3179 154.972L96.1481 155.397L97.0586 155.682L98.0193 155.852L100.001 155.981L103 156L109 156L133 156L140 156L142.999 155.981L144.981 155.852L146.852 155.397L147.682 154.972L148.397 154.397L149.397 152.852L149.852 150.981L149.941 149.995L149.995 148L150 146L149.999 142C149.992 140.675 150.027 139.335 149.891 138.015C149.761 136.75 149.523 135.482 148.821 134.394L147.566 132.994L146.772 132.414L145.891 131.904L143.985 131.004L141.999 130.139L139 128.742L136.002 127.262L134.025 126.352L132.16 125.638L130.671 125.228L129 125L130.07 123.329L130.473 122.841L131.212 121.84L131.91 120.955C132.612 119.997 133.308 119.051 133.865 117.998C134.848 116.14 135.393 114.071 135.699 112C135.894 110.679 135.981 109.335 135.942 108C135.913 106.993 135.823 105.986 135.61 105L135.03 103L134.633 102L134.16 101.001L133.633 100.004L132.362 98.044C131.4 96.7613 130.271 95.6255 128.957 94.7029L126.996 93.5725L125.999 93.1481L125 92.8048L124 92.537L123 92.3449L122 92.2284L120 92.2539C117.826 92.4902 115.79 93.3961 114.015 94.6528L112.108 96.2137L111.225 97.1049L109.703 99.0154L108.573 101.001L108.148 102L107.804 103L107.329 105L107.094 107L107.029 109L107.044 110L107.094 111L107.185 112L107.533 114L108.148 116L108.572 117L109.684 118.995L111.086 120.955L111.787 121.84L112.527 122.841L112.93 123.329L114 125z"/>
</svg>
