<?xml version="1.0" standalone="yes"?>
<svg xmlns="http://www.w3.org/2000/svg" width="610" height="610">
<path style="fill:#282837; stroke:none;" d="M288 0.388916L287 0.611084L285 0.916687L284 0.972229L283 1L282 1L280 1L278 1.02777L277 1.08331L275 1.38892L274 1.61108L272 1.91669L270 2.02777L269 2.08331L267 2.38892L266 2.61108L264 2.91669L263 2.97223L261 3.08331L259 3.38892L257 3.77777L256 3.94446L255 4.05554L253 4.38892L252 4.61108L251 4.80554L249 5.19446L248 5.38892L247 5.61108L246 5.80554L244 6.19446L243 6.38892L241 6.80554L239 7.19446L238 7.38892L237 7.63892L236 7.86108L235 8.13892L233 8.61108L232 8.80554L231 9L229 9.41669L227 10L226 10.3055L225 10.6111L223 11.1389L222 11.3611L221 11.6389L220 11.8611L218 12.3889L217 12.6945L216 13L214 13.6667L209 15.3333L204 17L202 17.6667L200 18.3889L199 18.8055L197 19.6111L195 20.3333L194 20.6667L193 21.0278L192 21.3889L190 22.25L189 22.75L187 23.6111L185 24.3889L183 25.25L182 25.75L180 26.6111L178 27.3889L176 28.25L175 28.7778L173 29.7778L172 30.2222L171 30.7778L170 31.2222L169 31.7778L168 32.2222L166 33.2222L165 33.7778L164 34.2222L163 34.7778L162 35.2222L160 36.25L158 37.3889L156 38.6111L154 39.75L153 40.25L151 41.3889L149 42.6111L147 43.8055L146 44.3889L144 45.6667L143 46.3333L141 47.6111L140 48.1945L138 49.4445L137 50.1667L135 51.5555L133 52.8333L132 53.4445L130 54.8611L129 55.6111L128 56.3055L126 57.6945L125 58.3889L123 59.8611L122 60.6389L121 61.3611L120 62.1389L119 62.8611L117 64.3889L116 65.1945L114 66.8055L112 68.3889L111 69.2222L110 70.0833L108 71.9167L107 72.7778L105 74.3889L103 76.0833L102 77.0278L100.028 78.9167L98.2222 80.5833L97.3889 81.3055L96.6111 82L95.7778 82.6945L93.9722 84.2222L93 85.0833L91 87L90 88L88 90L87 91L85.0833 93L84.2222 93.9722L82.6944 95.7778L82 96.6111L80.5833 98.2222L79.7778 99.0833L78.9167 100.028L77 102L75.0833 104L73.3889 106L72.6111 107L70.9444 109L70.0556 110L68.3889 112L66.8056 114L65.1944 116L64.3889 117L62.8611 119L62.1389 120L61.3611 121L60.6389 122L59.8611 123L58.3889 125L57.6944 126L56.3056 128L55.6111 129L54.8611 130L53.4444 132L52.8333 133L51.5556 135L50.8333 136L50.1389 137L49.3889 138L48.0278 140L46.8056 142L45.6111 144L44.3889 146L43.8056 147L42.6111 149L41.3889 151L40.25 153L39.75 154L38.6111 156L37.3889 158L36.8333 159L36.25 160L35.2222 162L34.7778 163L34.2222 164L33.7778 165L33.2222 166L32.2222 168L31.7778 169L31.2222 170L30.7778 171L29.7778 173L29.2222 174L28.7778 175L28.2222 176L27.7778 177L27.2222 178L26.25 180L25.8333 181L25.3889 182L24.6111 184L23.8056 186L23.3889 187L22.6111 189L21.8056 191L21.3889 192L20.6111 194L19.8056 196L19.3889 197L19.0278 198L18.6667 199L18.3333 200L17.6667 202L17.3333 203L16.6111 205L15.8333 207L15.4444 208L15.1667 209L14.8611 210L14.3056 212L14 213L13.3333 215L13 216L12.6944 217L12.3889 218L11.8611 220L11.6389 221L11.3611 222L11.1389 223L10.8611 224L10.6111 225L10 227L9.66667 228L9 230L8.69444 231L8.41667 232L8.19444 233L7.80556 235L7.38889 237L7 239L6.61111 241L6.13889 243L5.86111 244L5.38889 246L5.19444 247L4.80556 249L4.61111 250L4.38889 251L4.08333 253L4.02778 254L3.91667 256L3.61111 258L3.38889 259L3.19444 260L2.80556 262L2.61111 263L2.38889 264L2.08333 266L2.02778 267L2 269L1.97222 271L1.91667 272L1.61111 274L1.38889 275L1.08333 277L1.02778 278L1 280L1 282L1 283L0.972222 284L0.916667 285L0.611111 287L0.388889 288L0.0833333 290L0.0277778 291L0 293L0 295L0 302L0 314L0 317L0 318L0.0277778 320L0.0833333 321L0.388889 323L0.611111 324L0.916667 326L1 328L1 330L1 331L1.02778 333L1.08333 334L1.38889 336L1.61111 337L1.91667 339L2.02778 341L2.08333 342L2.38889 344L2.61111 345L2.91667 347L2.97222 348L3.08333 350L3.22222 351L3.61111 353L3.80556 354L4.19444 356L4.38889 357L4.61111 358L4.94444 360L5.22222 362L5.61111 364L5.80556 365L6.19444 367L6.38889 368L6.61111 369L7 371L7.41667 373L7.69444 374L8.30556 376L8.58333 377L9 379L9.41667 381L10 383L10.3056 384L10.6111 385L11.1389 387L11.3611 388L11.6389 389L11.8611 390L12.1389 391L12.3889 392L13 394L13.6667 396L14.0278 397L14.3889 398L15.1667 400L15.5556 401L16.1389 403L16.3889 404L17 406L17.6667 408L18.6667 411L19.3333 413L19.6667 414L20.0278 415L20.3889 416L21.25 418L21.75 419L22.6111 421L23.3889 423L24.25 425L24.75 426L25.6111 428L26.3889 430L26.8333 431L27.25 432L28.2222 434L28.7778 435L29.2222 436L29.7778 437L30.2222 438L30.7778 439L31.7778 441L32.2222 442L32.7778 443L33.2222 444L34.2222 446L34.7778 447L35.2222 448L35.7778 449L36.2222 450L37.25 452L37.8333 453L38.3889 454L39.6111 456L40.1944 457L41.3889 459L42.6111 461L43.8056 463L44.3889 464L45.0278 465L45.6667 466L46.3333 467L47.6111 469L48.1944 470L49.3889 472L50.0278 473L50.6667 474L52 476L53.3889 478L54.1389 479L55.6111 481L56.3056 482L57 483L58.3333 485L59 486L60.4167 488L62 490L63.6111 492L64.3889 493L65.1944 494L66.8056 496L67.6111 497L68.3889 498L69.1944 499L70.8056 501L71.6111 502L72.3889 503L74.0833 505L75.0278 506L76.9722 508L77.9167 509L79.6111 511L80.3889 512L82.0833 514L83.0278 515L85 517L86 518L89 521L91 523L92 524L94 525.972L95 526.917L97 528.611L99 530.222L100 531.083L102 532.972L103 533.917L105 535.611L107 537.222L108 538.083L110 539.917L111 540.778L112 541.611L114 543.194L116 544.806L117 545.611L119 547.139L120 547.861L121 548.639L122 549.361L123 550.139L125 551.611L126 552.306L128 553.694L129 554.389L131 555.861L132 556.611L134 558L135 558.667L137 560L139 561.333L140 561.972L141 562.611L142 563.194L144 564.389L146 565.611L148 566.75L149 567.25L151 568.389L153 569.611L155 570.806L156 571.389L158 572.611L159 573.167L160 573.75L162 574.778L163 575.222L164 575.778L165 576.222L166 576.778L168 577.778L169 578.222L170 578.778L172 579.778L173 580.222L174 580.778L175 581.222L176 581.778L178 582.75L179 583.167L180 583.611L182 584.389L183 584.806L185 585.611L187 586.389L189 587.25L190 587.75L192 588.611L193 588.972L194 589.333L195 589.667L197 590.389L199 591.194L200 591.611L202 592.333L204 593L209 594.667L214 596.333L216 597L218 597.611L219 597.861L221 598.444L222 598.833L224 599.528L225 599.778L226 600L228 600.417L229 600.694L231 601.306L232 601.583L234 602L236 602.389L237 602.611L238 602.806L240 603.194L241 603.389L243 603.778L245 604.056L247 604.389L248 604.611L249 604.806L251 605.194L252 605.389L253 605.611L255 605.944L256 606.056L258 606.389L259 606.611L260 606.806L262 607.194L263 607.389L264 607.611L266 607.917L267 607.972L269 608L271 608.028L272 608.083L274 608.389L275 608.611L277 608.917L278 608.972L280 609L281 609L283 609L285 609.083L287 609.389L288 609.611L290 609.917L291 609.972L293 610L297 610L308 610L316 610L318 610L320 609.972L321 609.917L323 609.611L324 609.389L326 609.083L327 609.028L329 609L330 609L332 609L334 608.917L336 608.611L337 608.389L339 608.083L341 607.972L342 607.917L344 607.611L345 607.389L347 607.083L348 607.028L350 606.917L351 606.778L353 606.389L355 606.056L356 605.944L358 605.611L359 605.389L361 605.056L362 604.944L364 604.611L365 604.361L366 604.139L367 603.861L369 603.389L370 603.194L372 602.806L374 602.389L375 602.194L377 601.806L378 601.583L380 601L381 600.667L383 600L384 599.694L385 599.417L386 599.194L388 598.806L389 598.583L391 598L393 597.333L394 597L395 596.694L396 596.389L398 595.861L399 595.611L401 595L403 594.333L405 593.667L406 593.333L408 592.611L410 591.806L411 591.389L412 591.028L414 590.333L415 589.972L416 589.611L417 589.194L419 588.389L421 587.611L423 586.806L424 586.389L426 585.611L428 584.75L429 584.222L431 583.25L432 582.833L433 582.389L435 581.611L436 581.167L437 580.75L439 579.778L440 579.222L441 578.778L442 578.222L444 577.222L445 576.75L446 576.167L447 575.611L449 574.389L450 573.833L451 573.25L453 572.222L454 571.778L455 571.222L456 570.75L457 570.167L458 569.611L460 568.389L461 567.806L463 566.611L465 565.389L467 564.194L468 563.611L470 562.333L472 561L476 558.333L479 556.333L480 555.667L482 554.306L483 553.611L485 552.139L486 551.361L487 550.639L488 549.861L489 549.139L491 547.611L492 546.806L494 545.194L495 544.389L496 543.611L497 542.806L499 541.194L500 540.389L501 539.611L503 537.944L504 537.056L505 536.222L506 535.389L507 534.611L509 532.917L510 531.972L511 531L513 529L515 527.028L516 526.083L517.917 524.389L518.778 523.639L519.611 522.861L521.139 521.361L522.639 519.778L523.389 518.917L525.083 517L526.028 516L528 514L530 512L531.972 510L532.917 509L534.611 507L535.389 506L537.083 504L538.917 502L539.778 501L541.389 499L543.056 497L543.944 496L545.611 494L546.361 493L547.861 491L548.639 490L549.361 489L550.139 488L551.611 486L552.306 485L553.694 483L554.389 482L555.139 481L555.861 480L557.306 478L558.611 476L559.194 475L559.833 474L560.444 473L561.833 471L562.556 470L563.167 469L563.806 468L565.028 466L566.333 464L566.972 463L567.611 462L568.75 460L569.25 459L570.389 457L571.611 455L572.75 453L573.25 452L574.361 450L574.944 449L575.472 448L576.528 446L577.056 445L578.167 443L578.75 442L579.222 441L579.75 440L580.167 439L580.611 438L581.389 436L581.833 435L582.25 434L583.222 432L583.75 431L584.611 429L585.389 427L586.25 425L586.75 424L587.611 422L588.389 420L589.194 418L589.611 417L590.389 415L591.194 413L591.611 412L591.972 411L592.333 410L593 408L594 405L596 399L596.667 397L597 396L597.611 394L597.861 393L598.389 391L598.694 390L599 389L599.333 388L600 386L600.306 385L600.611 384L601.139 382L601.361 381L601.639 380L601.861 379L602.139 378L602.611 376L602.806 375L603.194 373L603.417 372L603.694 371L604.306 369L604.583 368L604.944 366L605.056 365L605.389 363L605.611 362L605.944 360L606.056 359L606.389 357L606.778 355L607 353L607.083 352L607.389 350L607.611 349L607.917 347L607.972 346L608.083 344L608.222 343L608.611 341L608.917 339L608.972 338L609.028 336L609.083 335L609.389 333L609.611 332L609.917 330L609.972 329L610 327L610 325L610 322L610 307L610 289L610 284L610 282L609.972 281L609.917 280L609.611 278L609.389 277L609.083 275L609.028 274L609 272L608.972 270L608.917 269L608.611 267L608.389 266L608.083 264L608.028 263L607.917 261L607.778 260L607.389 258L607.194 257L606.806 255L606.611 254L606.222 252L605.944 250L605.611 248L605.389 247L605.194 246L604.806 244L604.611 243L604.389 242L604.194 241L603.806 239L603.611 238L603.139 236L602.861 235L602.361 233L602.139 232L601.611 230L601.306 229L601 228L600.417 226L600.194 225L599.806 223L599.583 222L599 220L598.333 218L597.667 216L596.667 213L596 211L595.389 209L594.833 207L594.556 206L594.167 205L593.389 203L592.667 201L592.333 200L591.667 198L591.333 197L590.972 196L590.611 195L590.194 194L589.389 192L588.611 190L588.167 189L587.75 188L587.222 187L586.778 186L586.25 185L585.389 183L584.611 181L584.167 180L583.75 179L582.778 177L582.25 176L581.361 174L580.944 173L580 171L579.5 170L578.5 168L577.5 166L577 165L575.944 163L575.361 162L574.833 161L574.25 160L573.222 158L572.778 157L572.222 156L571.75 155L571.167 154L570.611 153L569.389 151L568.194 149L567.611 148L566.333 146L565.667 145L564.389 143L563.194 141L562.611 140L561.333 138L560.667 137L558.667 134L556.667 131L556 130L555.306 129L554.611 128L553.139 126L552.361 125L551.639 124L550.861 123L550.139 122L548.611 120L547.806 119L546.194 117L545.389 116L544.611 115L543.806 114L542.194 112L541.389 111L540.611 110L538.944 108L538.056 107L537.222 106L536.389 105L535.611 104L533.917 102L532.972 101L531 99L529 97L521 89L514 82L512 80L510 78.0278L509 77.0833L507 75.3889L506 74.6111L504 72.9445L503 72.0555L501 70.3889L500 69.6111L498 67.9445L497 67.0555L495 65.3889L494 64.6389L492 63.1389L491 62.3611L490 61.6389L489 60.8611L488 60.1389L486 58.6389L485 57.8611L483 56.3889L482 55.6945L481 55L480 54.3333L479 53.6667L477 52.3333L474 50.3333L473 49.6667L471 48.3889L470 47.8055L468 46.6111L466 45.3333L465 44.6667L463 43.3889L462 42.8055L460 41.6111L458 40.3889L457 39.8333L456 39.25L454 38.2222L453 37.7778L452 37.2222L451 36.75L450 36.1667L449 35.6111L447 34.3889L446 33.8333L445 33.2778L443 32.3611L442 31.9445L440 30.9445L439 30.3889L437 29.4166L435 28.6111L433 27.75L431 26.7778L430 26.2222L429 25.7778L428 25.25L427 24.8333L426 24.3889L424 23.6111L423 23.1945L421 22.3889L419 21.6111L417 20.8055L416 20.3889L414 19.6667L413 19.3333L411 18.6111L410 18.1945L408 17.3889L406 16.6667L405 16.3333L403 15.6667L401 15L399 14.3889L398 14.1389L396 13.6111L395 13.3055L394 13L393 12.6667L391 12L389 11.4167L387 11L385 10.5278L383 9.83331L382 9.47223L380 9L378 8.61108L377 8.36108L376 8.13892L375 7.86108L373 7.38892L372 7.19446L370 6.80554L369 6.61108L368 6.38892L367 6.19446L365 5.80554L364 5.61108L363 5.38892L361 5.05554L360 4.94446L358 4.61108L357 4.38892L356 4.19446L354 3.80554L353 3.61108L351 3.22223L350 3.08331L348 2.97223L347 2.91669L345 2.61108L344 2.38892L342 2.08331L341 2.02777L339 1.91669L337 1.61108L336 1.38892L334 1.08331L333 1.02777L331 1L330 1L328 1L326 0.916687L324 0.611084L323 0.388916L321 0.083313L320 0.027771L318 0L317 0L314 0L302 0L295 0L293 0L292 0L290 0.083313L288 0.388916M284 23.2222L285 23.0833L287 23L289 23L290 23L293 23L309 23L320 23L322 23L323 23L325 23.0278L326 23.0833L328 23.3889L329 23.6111L331 23.9167L332 23.9722L334 24L336 24.0278L337 24.0833L339 24.3889L341 24.7778L342 24.9167L343 24.9722L345 25.0833L346 25.2222L348 25.6111L349 25.8055L351 26.1945L352 26.3889L353 26.6111L354 26.8055L356 27.1945L358 27.6111L360 27.9445L361 28.0555L363 28.3889L365 28.8055L367 29.1945L368 29.3889L370 29.8611L371 30.1389L372 30.3611L373 30.6389L374 30.8611L376 31.3611L377 31.6389L378 31.8611L380 32.3611L381 32.6389L382 32.8611L384 33.3889L385 33.6945L386 34L388 34.6667L392 36L394 36.6667L395 37L397 37.6111L398 37.8611L400 38.4445L401 38.8333L403 39.6111L405 40.3889L406 40.8055L408 41.6111L410 42.3889L411 42.8055L413 43.6111L415 44.3889L417 45.25L418 45.75L420 46.6111L422 47.3889L424 48.25L426 49.2222L427 49.7778L428 50.2222L429 50.7778L430 51.2222L431 51.7778L433 52.7778L434 53.2222L435 53.7778L436 54.2222L437 54.7778L438 55.2222L439 55.7778L441 56.7778L442 57.25L443 57.8333L444 58.3889L446 59.6111L447 60.1945L449 61.3889L451 62.6111L453 63.75L454 64.25L456 65.4445L457 66.1667L458 66.8611L459 67.6111L461 69L463 70.3333L468 73.6667L470 75L471 75.6945L472 76.3889L474 77.8611L475 78.6389L476 79.3611L477 80.1389L478 80.8611L480 82.3889L481 83.1945L483 84.8055L485 86.3889L487 88.0555L488 88.9445L490 90.6111L491 91.3889L493 93.0833L494 94.0278L495 95L497 97L499 98.9722L501 100.778L502.972 102.389L504.778 104.056L505.583 104.944L507 106.583L507.667 107.306L509 108.694L509.694 109.417L510.417 110.222L512.083 112.028L513.028 113L515 115L516.972 117L517.917 118L519.611 120L520.389 121L522.056 123L522.944 124L524.611 126L525.361 127L526.139 128L526.861 129L528.389 131L529.194 132L530.806 134L531.611 135L533.139 137L533.861 138L534.611 139L535.306 140L536 141L536.667 142L537.333 143L538.667 145L540 147L541.389 149L542.139 150L542.833 151L543.556 152L544.806 154L545.389 155L546.667 157L547.972 159L548.611 160L549.75 162L550.222 163L550.778 164L551.25 165L551.833 166L552.389 167L553.611 169L554.167 170L554.75 171L555.222 172L556.222 174L556.778 175L557.222 176L557.778 177L558.222 178L558.778 179L559.222 180L559.778 181L560.222 182L561.222 184L561.75 185L562.167 186L562.611 187L563.389 189L563.833 190L564.25 191L564.778 192L565.222 193L565.75 194L566.611 196L566.972 197L567.333 198L568.028 200L568.389 201L569.25 203L569.75 204L570.167 205L570.611 206L570.972 207L571.667 209L572.389 211L572.806 212L573.556 214L573.833 215L574.389 217L575 219L575.333 220L576 222L576.306 223L576.611 224L577.139 226L577.361 227L577.639 228L577.861 229L578.389 231L578.694 232L579.306 234L579.583 235L579.806 236L580.194 238L580.389 239L580.861 241L581.139 242L581.361 243L581.861 245L582.361 247L582.611 248L582.944 250L583.056 251L583.389 253L583.611 254L583.806 255L584.194 257L584.389 258L584.778 260L584.917 261L585.028 263L585.083 264L585.389 266L585.611 267L585.917 269L585.972 270L586.083 272L586.389 274L586.611 275L586.917 277L586.972 278L587 280L587.028 281L587.083 282L587.389 284L587.611 285L587.917 287L587.972 288L588 290L588 293L588 302L588 315L588 318L588 320L587.972 322L587.917 323L587.611 325L587.389 326L587.083 328L587.028 329L587 331L586.972 333L586.917 334L586.611 336L586.389 337L586.083 339L585.972 341L585.917 342L585.611 344L585.389 345L585.083 347L585.028 348L584.917 350L584.778 351L584.361 353L584.139 354L583.861 355L583.639 356L583.389 357L583.056 359L582.944 360L582.611 362L582.361 363L582.139 364L581.861 365L581.389 367L581.194 368L580.806 370L580.389 372L580.194 373L579.778 375L579.528 376L578.833 378L578.444 379L578.167 380L577.556 382L577.167 383L576.472 385L576 387L575.806 388L575.583 389L575 391L574.333 393L572.667 398L571.667 401L571.333 402L570.972 403L570.611 404L570.167 405L569.75 406L569.25 407L568.389 409L568.028 410L567.333 412L566.972 413L566.611 414L565.75 416L565.222 417L564.778 418L564.25 419L563.833 420L563.389 421L562.611 423L562.167 424L561.75 425L561.222 426L560.222 428L559.778 429L559.222 430L558.778 431L558.222 432L557.778 433L557.222 434L556.222 436L555.75 437L555.167 438L554.611 439L553.389 441L552.833 442L552.25 443L551.222 445L550.75 446L550.167 447L549.611 448L548.389 450L547.194 452L546.611 453L545.389 455L544.806 456L544.167 457L543.556 458L542.167 460L541.444 461L540.167 463L539.556 464L538.139 466L537.389 467L536.694 468L535.306 470L534.611 471L533.139 473L531.611 475L530.806 476L529.194 478L528.389 479L526.861 481L526.139 482L525.361 483L524.611 484L522.917 486L521.083 488L520.222 489L518.611 491L517.778 492L516.917 493L515 495L514 496L513.028 497L512.083 497.972L510.417 499.778L509.694 500.611L509 501.361L508.306 502.139L506.806 503.639L506 504.389L504.389 506.083L503.611 507L501.917 508.778L500 510.389L498 512.083L496 514L494 515.972L493 516.917L491 518.611L490 519.389L488 521.056L487 521.944L485 523.611L483 525.194L481 526.806L480 527.611L478 529.139L477 529.861L476 530.639L475 531.361L474 532.139L472 533.611L471 534.306L470 535L468 536.333L467 537L465 538.389L464 539.139L463 539.861L461 541.306L459 542.611L457 543.806L456 544.389L454 545.667L453 546.333L452 546.972L451 547.611L449 548.75L448 549.25L446 550.389L444 551.611L443 552.167L442 552.75L440 553.778L439 554.222L438 554.778L437 555.222L435 556.222L434 556.778L433 557.222L432 557.778L431 558.222L430 558.778L428 559.778L427 560.222L426 560.778L425 561.222L424 561.778L422 562.75L420 563.611L418 564.389L416 565.25L415 565.75L413 566.611L411 567.389L409 568.194L408 568.611L407 568.972L406 569.333L405 569.667L403 570.333L396 572.667L389 575L387 575.667L386 576L384 576.611L383 576.861L381 577.389L380 577.694L379 578L377 578.583L375 579L373 579.389L371 579.861L370 580.139L368 580.639L367 580.861L365 581.361L364 581.611L362 581.944L361 582.056L359 582.389L358 582.611L356 582.944L355 583.056L353 583.389L352 583.611L351 583.806L349 584.194L348 584.389L347 584.611L345 584.917L343 585.028L342 585.083L340 585.389L339 585.611L337 585.917L336 585.972L334 586L332 586.028L331 586.083L329 586.389L328 586.611L326 586.917L325 586.972L323 587L321 587L315 587L313 587L312 587L310 587.083L309 587.222L307 587.583L305 587.694L303 587.389L302 587.222L301 587.083L299 587L298 587L296 587L290 587L288 587L286 586.972L285 586.917L283 586.611L282 586.389L280 586.083L279 586.028L277 586L275 585.972L274 585.917L272 585.611L271 585.389L269 585.083L267 584.972L266 584.917L264 584.611L263 584.389L261 584.056L260 583.944L258 583.611L256 583.222L254 582.944L252 582.611L251 582.389L249 582.056L248 581.944L246 581.583L245 581.306L243 580.694L242 580.417L241 580.194L239 579.806L238 579.611L236 579.139L235 578.861L233 578.361L232 578.139L231 577.861L230 577.611L228 577L227 576.667L225 576L224 575.694L223 575.389L222 575.139L220 574.611L218 574L217 573.667L214 572.667L211 571.667L210 571.333L208 570.611L207 570.194L205 569.389L203 568.667L202 568.333L201 567.972L200 567.611L198 566.75L197 566.25L195 565.389L193 564.611L191 563.75L190 563.222L188 562.25L187 561.833L186 561.389L184 560.611L183 560.167L182 559.75L181 559.222L180 558.75L179 558.167L177 557.056L176 556.528L174 555.472L173 554.944L171 553.833L170 553.25L168 552.222L167 551.75L165 550.611L163 549.389L161 548.25L160 547.75L158 546.611L157 545.972L156 545.333L155 544.667L153 543.333L150 541.333L148 540L146 538.611L145 537.861L143 536.444L141 535.167L140 534.556L138 533.139L137 532.361L135 530.861L134 530.139L133 529.361L132 528.639L131 527.861L129 526.361L128 525.611L126 523.917L124 522.083L122 520.389L120 518.778L119 517.917L117 516.083L115 514.389L114 513.611L112 511.917L111 510.972L109 509L108 508L105 505L102 502L101 501L99.0278 499L98.0833 498L96.3889 496L95.6111 495L93.9167 493L92 491L90.0833 489L89.2222 488L87.6389 486L86.8611 485L86.1389 484L84.6111 482L83.8056 481L82.1944 479L81.3889 478L79.8611 476L79.1389 475L78.3611 474L77.6389 473L76.8611 472L75.3889 470L74.6944 469L73.3056 467L72.6111 466L71.1667 464L70.4444 463L69.8333 462L68.6111 460L67.3333 458L66.6667 457L65.3333 455L64.6667 454L64.0278 453L63.3889 452L62.25 450L61.75 449L60.6111 447L59.3889 445L58.1944 443L57.6389 442L57.0556 441L56.0556 439L55.6111 438L54.5833 436L53.3889 434L52.8333 433L52.25 432L51.2222 430L50.7778 429L50.2222 428L49.25 426L48.8333 425L48.3889 424L47.6111 422L46.75 420L46.25 419L45.3889 417L44.6111 415L43.75 413L43.25 412L42.3889 410L42.0278 409L41.6667 408L41.3333 407L40.6111 405L39.8056 403L39.3889 402L38.6667 400L38 398L37 395L35.6667 391L35 389L34.4167 387L34.1944 386L34 385L33.5278 383L32.8333 381L32.4444 380L31.8611 378L31.6389 377L31.3611 376L31.1389 375L30.8611 374L30.6389 373L30.3611 372L30.1389 371L29.8611 370L29.3889 368L29.1944 367L28.8056 365L28.6111 364L28.3889 363L28.1944 362L27.8056 360L27.6111 359L27.3889 358L27.0556 356L26.9444 355L26.6111 353L26.3889 352L26.1944 351L25.8056 349L25.6111 348L25.2222 346L25.0833 345L24.9722 343L24.9167 342L24.6111 340L24.3889 339L24.0833 337L24.0278 336L24 334L23.9722 332L23.9167 331L23.6111 329L23.3889 328L23.0833 326L23.0278 325L23 323L23 321L23 315L23 313L23 312L22.9167 310L22.7778 309L22.6111 308L22.3056 306L22.3056 305L22.4167 304L22.7778 302L22.9722 300L23 298L23 296L23 289L23 288L23.0278 286L23.0833 285L23.3889 283L23.6111 282L23.9167 280L23.9722 279L24 277L24.0278 275L24.0833 274L24.3889 272L24.6111 271L24.9167 269L25.0278 267L25.0833 266L25.3889 264L25.6111 263L25.9444 261L26.2222 259L26.3889 258L26.7778 256L26.9167 255L27.0833 253L27.3889 251L27.8056 249L28.1944 247L28.4167 246L28.6944 245L29.3056 243L29.5833 242L30 240L30.1944 239L30.3889 238L30.8611 236L31.1389 235L31.3611 234L31.6389 233L31.8611 232L32.3889 230L32.6944 229L33 228L33.6667 226L34 225L34.3056 224L34.6111 223L34.8611 222L35.3889 220L36 218L36.3333 217L37.3333 214L38.3333 211L38.6667 210L39.3889 208L39.8056 207L40.6111 205L41.3333 203L41.6667 202L42.0278 201L42.3889 200L43.25 198L43.75 197L44.6111 195L45.3889 193L46.25 191L46.75 190L47.6111 188L48.3889 186L49.25 184L50.2222 182L50.7778 181L51.2222 180L52.25 178L52.8333 177L53.9444 175L54.4722 174L55.5278 172L56.0556 171L57.1667 169L57.75 168L58.2222 167L58.7778 166L59.25 165L60.3889 163L61.0278 162L61.6667 161L62.3333 160L63.6111 158L64.1944 157L65.3889 155L66.0278 154L66.6667 153L68 151L69.3333 149L70.6111 147L71.8333 145L72.4444 144L73.8611 142L74.6389 141L76.1389 139L76.8611 138L77.6389 137L78.3611 136L79.8611 134L80.6389 133L81.3611 132L82.1389 131L83.6389 129L84.3889 128L86.0833 126L87.9167 124L88.7778 123L90.3889 121L91.2222 120L92.0833 119L93.9167 117L94.7778 116L96.3889 114L98.0833 112L99.0278 111L101 109L102 108L105 105L108 102L109 101L111 99.0278L112 98.0833L114 96.3889L116 94.7778L117 93.9167L119 92.0833L120 91.2222L122 89.6111L123 88.8055L125 87.1945L126 86.3889L127 85.6111L129 83.9445L130 83.0555L132 81.3889L133 80.6389L134 79.8611L136 78.3889L137 77.6945L139 76.3055L140 75.5833L142 74L143 73.2222L144 72.4722L145 71.8333L147 70.6111L149 69.3333L150 68.6667L152 67.3333L153 66.6667L154 66.0278L155 65.3889L156 64.8055L158 63.6111L160 62.3889L162 61.25L163 60.75L165 59.6111L167 58.3889L169 57.25L171 56.2222L172 55.7778L173 55.2222L174 54.7778L175 54.2222L177 53.2222L178 52.7778L179 52.2222L180 51.75L182 50.6389L183 50.0555L185 49.0555L186 48.6389L187 48.1667L188 47.75L189 47.2222L191 46.25L192 45.8333L193 45.3889L195 44.6111L197 43.8055L198 43.3889L200 42.6111L202 41.8055L203 41.3889L204 41.0278L205 40.6667L206 40.3333L208 39.6667L209 39.3333L211 38.6111L213 37.8055L214 37.3889L216 36.6945L218 36.1389L219 35.8611L220 35.6111L222 35L224 34.3333L226 33.6667L227 33.3333L228 33L230 32.4167L231 32.1945L233 31.8055L234 31.6111L236 31.1945L238 30.8055L239 30.5833L240 30.3055L242 29.6945L243 29.4167L245 29L247 28.5833L248 28.3055L250 27.6945L251 27.4167L253 27.0833L254 27.0278L256 26.9167L257 26.7778L259 26.3889L260 26.1945L262 25.8055L263 25.6111L264 25.3889L266 25.0833L268 24.9722L269 24.9167L271 24.6111L272 24.3889L274 24.0833L275 24.0278L277 24L278 24L280 23.9167L281 23.7778L282 23.6111L284 23.2222M201 107.722L199.028 109.111L198.111 110.028L196.722 112L196.333 113L196.056 115L196.222 117L196.722 119L197.111 120L198.306 121.917L200.028 123.5L202 124.5L203 124.75L205 124.972L206 125L207 125L209 125L219 125L253 125L360 125L397 125L400 125L402 125L404 125L405 124.972L406 124.917L408 124.528L409.972 123.722L410.917 123.139L411.75 122.528L412.5 121.75L413.083 120.917L413.972 119L414.556 117L414.694 116L414.694 115L414.278 113L413.889 112L412.694 110.083L410.972 108.5L409 107.5L408 107.25L407 107.083L405 107L404 107L402 107L398 107L395 107L375 107L362 107L310 107L308 107L280 107L250 107L216 107L210 107L208 107L207 107L205 107L204 107.028L203 107.111L201 107.722M296 175L296 304L296 325L296 329L296 331L296 332L296.083 334L296.222 335L296.417 336L297.111 338L297.639 338.972L298.306 339.917L300.028 341.5L302 342.5L304 342.917L306 342.972L308 342.694L309 342.361L310.917 341.278L312.528 339.778L313.722 337.972L314.528 336L314.75 335L314.972 333L315 332L315 330L315 328L315 324L315 304L315 175L317.056 176.472L318.917 178.083L320.611 179.917L321.361 180.778L322.861 182.389L323.639 183.222L324.389 184.083L326.083 186L327.028 187L329 189L330 190L334 194L348 208L365 225L373 233L376 236L377 237L378 238L380 239.917L382 241.528L383 242.139L385 243.139L386 243.528L388 243.833L390 243.528L392 242.722L392.972 242.139L394.75 240.75L395.5 239.917L396.5 238L396.917 236L396.972 234L396.75 232L396.5 231L395.5 229L393.917 227L392.972 226L392 225L390 223L388 221L385 218L377 210L368 201L365 198L364 197L362.083 195.028L360.389 193.222L359.611 192.389L358.778 191.611L357.917 190.778L356 188.972L354.083 187.028L352.389 185.222L351.611 184.389L350.778 183.611L348.972 181.917L347.028 180L345.222 178.083L344.389 177.222L343.611 176.389L342.778 175.611L341.917 174.778L340.972 173.917L339.028 172L338.083 171L337.222 170.028L335.611 168.222L334.778 167.389L333.917 166.611L332 164.917L330.083 163L329.222 162.028L327.611 160.222L326.778 159.389L325.917 158.611L324 156.917L323.028 155.972L322.083 155L320.389 153.083L319.611 152.222L318.778 151.389L316.972 149.778L316 148.917L314 147.028L313 146.083L311 144.5L309 143.5L308 143.25L307 143.083L305 143.028L303 143.25L302 143.5L300 144.5L298 146.083L296 148L295 149L294 150L292 152L287 157L285 159L284 160L282 162L281 162.972L280.028 163.917L278.222 165.611L277.389 166.389L276.611 167.222L275.778 168.083L273.972 170L273 171L272 172L269 175L267 177L266 178L264.028 179.917L262.222 181.611L261.389 182.389L260.611 183.222L258.917 185.028L257 187L255 189L252 192L249 195L248 196L246.028 197.917L245.083 198.778L244.222 199.611L243.389 200.361L241.861 201.861L241.139 202.639L240.361 203.361L239.639 204.139L238.861 204.861L237.361 206.389L236.611 207.222L234.944 208.944L234.056 209.778L232.389 211.389L231.611 212.222L229.944 213.944L228.222 215.611L227.389 216.361L225.861 217.861L225.167 218.639L224.444 219.389L223.861 220.222L223.278 221.083L222.472 223L222.25 224L222.083 225L222.083 227L222.25 228L222.5 229L223.5 230.972L224.25 231.917L225.083 232.75L226.028 233.5L227 234.056L228 234.5L229 234.75L230 234.917L232 234.917L234 234.5L235 234.083L236 233.583L237.917 232.306L238.778 231.583L239.611 230.778L240.389 229.917L242.083 228L244 226.083L245.972 224.389L246.917 223.611L247.778 222.778L249.389 220.972L251.083 219.028L253 217.222L254.972 215.611L255.917 214.778L256.778 213.917L258.389 212.083L259.222 211.222L261 209.611L262.778 207.944L264.306 206.222L265 205.389L266.417 203.861L268.083 202.361L269.028 201.611L271 199.917L273 198L274 197L276 195L280 191L296 175M342 360L342.333 361.5L342.639 362.056L343.111 363.056L344.333 365L345 366L346.333 368L346.972 369L347.611 370L348.722 371.944L349.167 372.944L349.5 373.5L350 375L319 375L319 386L331 386L335 386L336 386L338 385.972L339 385.917L341 385.611L342 385.389L344 385.083L345 385.028L347 385L348 385L353 385L368 385L367.972 386.5L367.778 388.056L367.583 389L367 391L366.667 392L365.667 395L364 400L363.333 402L362.972 403L362.611 404L361.806 406L361.389 407L360.694 409L360.417 409.944L360.083 411.5L360 413L341 413L342.5 411.944L343.056 411.611L345 410.389L346.944 409.25L347.5 409L349 408L348.5 406.5L348.167 405.944L347.75 404.944L346.75 403L346.167 402L345.611 401L344.389 399L343.25 397L342.75 396L341.611 394L340.972 393L339.667 391L338.389 389.056L338.056 388.5L337 387L335.5 387.5L334.944 387.833L333 388.778L331 389.778L330.056 390.194L329.056 390.778L328.5 391L327 392L327.278 393.5L327.861 395.056L328.25 396L328.778 397L329.25 398L330.389 400L331.611 402L332.167 403L332.75 404L333.222 405L333.75 406L334.611 408L335.361 409.944L335.833 410.944L336.028 411.5L337 413L326 413L323 413L322 413L321 413L319 412.917L318.056 412.778L317.056 412.583L315 412L315 424L317.056 423.972L318.056 423.917L320 423.611L321 423.389L323 423.083L325 423L326 423L328 423L334 423L352 423L370 423L376 423L378 423L379 423L381 423.083L382 423.222L384 423.611L386 423.917L387 423.972L388.944 424L389.944 424L392 424L392 413L371 413L371.5 411.5L371.833 410.944L372.25 409.944L372.778 409L373.222 408L373.778 407L374.75 405L375.167 404L375.639 403L376.056 402L377.056 400L378.167 398L378.75 397L379.778 395L380.222 394L380.75 393.056L381.167 392.056L381.5 391.5L382 390L380.5 389L379.944 388.778L378.944 388.222L378.056 387.861L376.5 387.278L375 387L376.5 386.278L377.056 386.25L378.056 386.056L379 386.028L380 386L382 386L384 386L388 386L388 375L359 375L360.444 373.806L361.556 373.028L363 372L362.639 370.5L362.306 369.944L361.75 368.944L360.389 367L359.694 366L359 365L357.667 363L357 362L355.583 360L354.028 358.056L353.278 357.056L352.778 356.5L352 355L350.5 355.111L348.944 355.694L347 356.889L345.056 358.278L344.056 358.917L343.5 359.306L342 360M208 364L208 374L209.5 373.75L211.056 373.389L213 373.083L214 373.028L215 373L217 373L224 373L239 373L238.972 375.056L238.917 376.056L238.611 378L238.389 379L238.083 381L237.972 383L237.917 384L237.611 386L237.389 387L237.083 389L237.028 389.944L237 390.944L237 393L212 393L212 395.056L212.028 397L212.083 398L212.389 400L212.778 402L212.917 403L213 405L213 406L213 408L213 413L213 430L213 447L213 452L213 454L212.972 455L212.917 456L212.611 458L212.389 458.944L212.222 459.944L212.083 460.5L212 462L224 462L224 402L271 402L271 461L283 461L283 392L280.944 392.583L279.944 392.778L279 392.917L277 393L275 393L269 393L248 393L248.25 391.5L248.389 390.944L248.778 389L249.056 387L249.389 385L249.611 384L249.806 383L250.194 381L250.389 380L250.611 379L250.917 377L250.972 376.056L251 375.056L251 373L273 373L280 373L282 373L284 373.028L285 373.083L287 373.389L287.944 373.611L288.944 373.778L289.5 373.917L291 374L291 364L208 364M157 368L157 378L177 378L177 443L177 454L177 457L177 459L177 461L176.972 462L176.917 463L176.583 465L176.278 466L175.361 467.917L173.889 469.5L172 470.5L170 470.917L168 471L167 471L166 471L164 471L159 471L159.083 472.5L159.472 474.056L160.194 476L160.611 477L161.333 479L161.667 480L162.306 482L162.583 482.944L162.917 484.5L163 486L164.5 485.75L166.056 485.361L167 485.139L168 484.861L169 484.639L170 484.361L171 484.139L173 483.611L174 483.306L175 483L176 482.667L178 482L180 481.333L182 480.583L183.917 479.5L185.5 477.917L186.083 476.972L186.972 475L187.583 473L187.917 471L187.972 470L188 469L188 467L188 465L188 461L188 450L188 378L204 378L204 368L202.5 368.028L200.944 368.222L199 368.611L197 368.917L196 368.972L194 369L192 369L184 369L173 369L170 369L168 369L166 368.917L164 368.611L163 368.389L161 368.083L160.056 368.028L159.056 368L157 368M397 368L397 370.056L397 371.056L397.028 373L397.083 374L397.389 376L397.778 378L397.917 379L398 381L398 382L398 385L398 393L398 418L398 494L409 494L409 378L430 378L429.917 379.5L429.778 380.056L429.611 381.056L429.361 382L429.139 383L428.611 385L428.306 386L427.694 388L427.389 389L427.139 390L426.611 392L426.306 393L425.694 395L425.389 396L425.139 397L424.611 399L424.306 400L424 401L423.667 402L423 404L422.694 405L422.139 407L421.833 408L421.556 409L421.167 410L420.806 411L420.389 412L419.611 414L419.194 415L418.472 416.944L418.278 417.5L418 419L420.056 421.056L421.917 423L423.611 425L424.361 426L425.861 428L426.639 429L427.361 430L428.139 431L428.861 432L430.306 434L431.611 436L432.194 437L433.389 439L434.583 441L435.583 443L435.972 444L436.667 446L437 447L437.583 449L437.833 451L437.722 452L437.5 453L436.5 455L434.917 456.972L433.972 457.889L432 459.361L430 460.278L429 460.583L427 460.944L426 461.056L424 461.389L423 461.611L421 461.917L420 461.972L418.056 462L416 462L416.083 463.5L416.472 465.056L416.833 466L417.194 467L417.611 468L418.389 470L419.167 472L419.528 472.944L419.917 474.5L420 476L422.056 476L423.056 476L425 475.917L426 475.778L427 475.583L429 475L430 474.694L431 474.389L432 474.139L434 473.611L435 473.306L436 473L437 472.667L439 471.917L440 471.444L441 470.917L443 469.583L444.972 467.917L445.917 466.972L446.75 466L447.528 465L448.139 464L448.722 463L449.528 461L449.778 460L450 459L450.389 457L450.611 456L450.917 454L451 452L450.917 450L450.611 448L450.361 447L449.861 445L449.361 443L448.778 441L447.917 439L446.833 437L446.25 436L445.75 435L444.556 433L443.833 432L442.389 430L441 428L439.583 426L437.917 424L436.972 423L435.028 421L433.25 419L432.528 418L431.75 416L431.917 414L432.222 413L432.972 411L433.333 410L433.667 409L434.333 407L436 402L437.333 398L438 396L438.306 395L438.611 394L439.139 392L439.389 391L440 389L440.333 388L441.333 385L442.333 382L443 380L443.611 378L443.861 377L444.389 375L444.694 374L445.306 372L445.583 371.056L445.917 369.5L446 368L443.944 368L397 368M240 413L240 428L240 433L240 435L239.972 436L239.917 437L239.611 439L239.389 440L239.083 442L239.028 443L238.917 445L238.778 446L238.389 448L238 450L237.583 452L237 454L236.667 455L235.972 457L235.611 458L235.167 459L234.722 460L234.167 461L233.611 462L232.306 464L231.583 465L229.917 467L228 468.917L226 470.583L225 471.306L223 472.611L221 473.75L220 474.222L218 475.222L217 475.75L216 476.167L215 476.611L213 477.389L211 478.194L210 478.611L209 478.972L207 479.611L206 479.861L205 480.139L203 480.611L201 481L199.056 481.417L197 482L197.75 483.5L198.222 484.056L198.889 485.056L199.639 486L200.361 487L201.139 488L202.556 490L203.75 491.944L204 492.5L205 494L206.5 493.917L208.056 493.583L209 493.306L211 492.611L212 492.194L214 491.389L216 490.611L217 490.167L218 489.75L219 489.222L221 488.222L222 487.75L224 486.611L226 485.333L228 484L230 482.611L231 481.861L233 480.361L234 479.611L236 477.917L238 476L239.972 474L240.917 473L242.528 471L243.75 469L244.25 468L244.833 467L245.917 465L246.778 463L247.361 461L247.639 460L247.861 459L248.361 457L248.611 456L248.944 454L249.056 453L249.222 452L249.611 450L249.917 448L250.083 446L250.222 445L250.611 443L250.917 441L250.972 440L251 438L251.028 436L251.083 435L251.389 433L251.611 432L251.917 430L251.972 429L252 427L252.028 425L252.083 424L252.389 422L252.611 421L253 419L253.417 417.056L254 415L252.5 414.278L251.944 414.25L250.944 414.056L250 414L248 413.778L246 413.389L244 413.083L243.056 413.028L242.056 413L240 413M326 437L326 442L326 444L326.028 445L326.083 446L326.389 448L326.611 449L326.917 451L326.972 452L327 454L327 456L327 462L327 471L327 474L327 475L326.917 477L326.778 478L326.389 480L326.083 482L326.028 483L326 484L326 486L326 493L338 493L338 481L370 481L370 493L382 493L381.972 491.5L381.778 489.944L381.389 488L381.083 486L381.028 485L381 483L381 479L381 469L381 455L381 450L381 448L381.083 446L381.389 444L381.611 443L381.917 441.056L381.972 440.056L382 438L381 437L326 437M370 447L370 471L352 471L346 471L344 471L342 471.083L341.056 471.222L340.056 471.417L338 472L338 447L370 447M260 460L252 468L252.778 469.472L253.306 469.972L254.111 470.833L256 472.306L258 473.694L259 474.389L261 475.861L262 476.639L264 478.139L266 479.639L267 480.389L269 482.083L271 483.917L272 484.778L274 486.389L274.972 487.222L275.917 488.056L277.611 489.778L278.361 490.611L279.139 491.361L280.611 492.861L281.306 493.611L282.639 494.889L283.361 495.361L283.75 495.667L285 496L285.778 494.5L286.278 493.944L287.028 492.944L287.806 492.028L289.389 490.222L290.222 489.389L291.972 487.833L292.5 487.417L294 486L293.222 484.583L292.694 484.167L291.889 483.333L290 481.806L288 480.194L287 479.389L285 477.806L283 476.194L282 475.389L280 473.861L279 473.139L278 472.361L277 471.639L276 470.861L275 470.139L273 468.639L272 467.861L270 466.361L269 465.639L268 464.861L266 463.361L265.056 462.667L264.056 461.833L263.5 461.417L262 460L260 460z"/>
</svg>
