<?xml version="1.0" standalone="yes"?>
<svg xmlns="http://www.w3.org/2000/svg" width="650" height="531">
<path style="fill:#272737; stroke:none;" d="M69 418L70.6713 417.34L71.159 417.099L72.1605 416.651L79 413.247L89 408.247L124 390.753L140 382.753L142 381.754L144 380.772L145 380.302L147 379.522L149 379.066C149.994 378.926 151.003 378.95 152 379.025C153.35 379.128 154.676 379.388 156 379.662L159 380.339L162 380.917L165 381.449L170 382.551L175 383.449L180 384.551L184 385.247L190 386.246L193 386.728L197 387.271C198.334 387.458 199.659 387.696 201 387.831L206 388.169C207.339 388.303 208.667 388.533 210 388.715L212 388.91C212.998 388.979 214 388.987 215 388.996L219 389.004L221 389.039C222.005 389.083 223.002 389.158 224 389.285C225.665 389.498 227.315 389.821 229 389.821C230.35 389.821 231.667 389.605 233 389.424C233.999 389.288 234.993 389.158 236 389.09C236.998 389.021 238 389.013 239 389.004L242 389L250 389L249.901 387.329L249.829 386.841L249.535 384.955C249.331 383.963 249.107 382.978 248.845 381.998C248.31 379.998 247.704 378.018 247.235 376C246.621 373.357 246.192 370.676 245.754 368L245.272 365L244.729 361L244.285 358L244.075 356L243.834 353L243.285 349C243.162 348.001 243.083 347.006 243.039 346L243.001 343L243 339L243.004 336C243.013 335 243.021 333.998 243.09 333L243.285 331C243.467 329.667 243.697 328.339 243.831 327L244.169 322C244.271 320.994 244.431 319.998 244.59 319L245.247 315L245.921 311C246.145 309.661 246.375 308.327 246.662 307C247.097 304.989 247.638 303.001 248.116 301C248.513 299.336 248.848 297.654 249.285 296C249.732 294.315 250.294 292.665 250.809 291C251.429 288.997 252.004 286.981 252.695 285C253.52 282.638 254.471 280.322 255.4 278C256.338 275.654 257.257 273.298 258.309 271C259.391 268.636 260.591 266.325 261.753 264L263.756 260C264.438 258.654 265.125 257.311 265.873 256C267.038 253.958 268.334 251.995 269.576 250L271.424 247C272.268 245.651 273.131 244.314 274.029 243C275.188 241.303 276.403 239.648 277.63 238C278.883 236.316 280.137 234.63 281.46 233C282.841 231.298 284.301 229.662 285.729 228C286.875 226.666 287.99 225.305 289.17 224C291.357 221.582 293.696 219.304 296 217C298.304 214.696 300.581 212.355 303 210.17C304.301 208.994 305.654 207.877 307 206.754C308.328 205.646 309.643 204.521 311 203.449C312.646 202.148 314.322 200.887 316 199.627C318.309 197.892 320.604 196.133 323 194.519C324.64 193.413 326.329 192.378 328 191.319C330.641 189.647 333.288 187.983 336 186.427C337.647 185.483 339.325 184.599 341 183.706L344 182.108C345.975 181.094 347.999 180.183 350 179.222L354 177.258C355.32 176.618 356.651 176.004 358 175.427C360.302 174.443 362.642 173.532 365 172.692C366.988 171.984 368.998 171.334 371 170.667L376 169.025L381 167.579C382.998 167.009 384.984 166.399 387 165.895C389.319 165.315 391.67 164.877 394 164.35C396.991 163.673 399.97 162.926 403 162.438L405 162.156L408 161.845L412 161.282L416 160.845C418.003 160.605 419.986 160.227 422 160.09C422.998 160.021 424 160.013 425 160.004L428 160L437 160L445 160L448 160.004C449 160.013 450.001 160.021 451 160.09C452.961 160.224 454.89 160.593 456.84 160.83L458.329 160.958L460 161L459.673 159.329L458.869 155.975L458.116 153L456.999 149C456.514 147.328 456.035 145.652 455.485 144C454.925 142.319 454.29 140.663 453.681 139C452.696 136.313 451.695 133.633 450.573 131L448.306 126C447.405 124.004 446.609 121.959 445.63 120C444.948 118.637 444.177 117.322 443.421 116L442.281 114L440.576 111C439.396 108.982 438.197 106.975 436.947 105C435.446 102.631 433.879 100.304 432.28 98L430.14 95C428.94 93.325 427.758 91.6325 426.5 90C425.45 88.6384 424.347 87.3195 423.245 86L420.728 83L419 81L416.421 78L413.83 75C412.278 73.284 410.651 71.6341 408.999 70.0146C408.016 69.0505 407.029 68.0858 406 67.1698L401 62.8449L398 60.1559L396 58.4383C392.439 55.4509 388.717 52.6611 385 49.8734C382.687 48.1389 380.392 46.3714 378 44.7462C376.042 43.4156 374.005 42.2079 372 40.9499L366 37.2037C364.019 36.0076 362.011 34.863 360 33.7191L354 30.3087L352 29.2585L349 27.7562L346 26.3087L340 23.6944L336 21.8611C334.015 21.0026 332.008 20.2027 330 19.3997C328.006 18.6022 326.016 17.7925 324 17.0532C322.345 16.4464 320.672 15.8925 319 15.3333L314 13.6667L309 12.0008C307.341 11.4531 305.681 10.9072 304 10.4275C301.352 9.67194 298.666 9.05579 296 8.37036L293 7.57635L290 6.73456C289.005 6.4704 288.006 6.23157 287 6.01465C285.676 5.72906 284.341 5.47186 283 5.27466L278 4.57562L270 3.27161L266 2.72919L262 2.15509L259 1.84491C257.33 1.64514 255.674 1.32928 254 1.16974C253.001 1.07452 252.003 1.03778 251 1.01392C249.667 0.982178 248.332 1.0022 247 0.910522L245 0.714478L242 0.285522C241.002 0.155884 240.005 0.083374 239 0.0393677C237.669 -0.0189209 236.332 0.000671387 235 0L228 0L222 0.000793457C220.667 0.00366211 219.331 -0.00164795 218 0.0894775C215.652 0.250244 213.347 0.74884 211 0.910522C209.668 1.0022 208.334 0.982178 207 1.01392C205.997 1.03778 204.999 1.07452 204 1.16974L200 1.71838L196 2.15509L192 2.71838C190 2.979 187.987 3.10535 186 3.46295L183 4.11652L180 4.7392L178 5.07947L174 5.75311L170 6.4491L168 6.88733L163 8.12653C161.33 8.54602 159.656 8.95532 158 9.42749L152 11.2801L147 12.7199C145.323 13.2251 143.661 13.7795 142 14.3333C139.99 15.0032 137.982 15.677 136 16.4252C134.321 17.059 132.658 17.7361 131 18.4244L127 20.1505C125.332 20.8667 123.65 21.5513 122 22.3087L116 25.2191L113 26.5872C111.994 27.0364 110.986 27.4762 110 27.9691C108.302 28.8183 106.666 29.7861 105 30.6952L100 33.4275C97.981 34.585 95.9944 35.8009 94 37C91.6443 38.4163 89.2877 39.83 87 41.3549C84.9641 42.7121 82.9873 44.1529 81 45.5795C79.6632 46.5391 78.3108 47.4802 77 48.4753C74.9722 50.0147 72.9867 51.608 71 53.1998C69.3199 54.546 67.6419 55.8927 66 57.2855L62 60.8449L58 64.2855C56.9793 65.1802 55.9794 66.0953 55.0039 67.0394C53.6835 68.3171 52.4019 69.6368 51.1698 71L47.7184 75L43.2855 80C41.6058 81.9572 40.0092 83.9852 38.3997 86C36.8198 87.9778 35.2288 89.9479 33.7454 92C32.3291 93.9593 31.0042 95.9861 29.6674 98C27.2827 101.593 24.9646 105.233 22.8619 109C21.7598 110.974 20.7552 112.999 19.7029 115L17.6019 119L15.706 123L14.3056 126C13.123 128.623 12.0446 131.299 11.0532 134L9.30864 139L7.51543 144L6.59028 147L5.74537 150L5.28549 152L4.33873 157L3.42438 161L2.19985 167C1.87048 168.66 1.50757 170.321 1.28935 172C1.15976 172.997 1.07623 173.995 1.03858 175C0.976081 176.668 0.989215 178.336 0.830247 180L0.424383 183C0.285355 183.999 0.15846 184.993 0.0895062 186C-0.00160692 187.331 0.00362836 188.667 0.000771605 190L0 196L0.000771605 202C0.00362878 203.333 -0.00161567 204.669 0.0895062 206C0.227467 208.015 0.619373 209.994 0.834105 212L1.16589 216C1.36385 217.676 1.64447 219.336 1.92052 221L2.44907 224C2.78693 225.679 3.21366 227.338 3.62654 229L4.87037 234L5.57639 237L6.23534 240C6.47401 241.009 6.74151 242.006 7.03627 243C7.53452 244.68 8.10865 246.34 8.66744 248C9.23199 249.677 9.79692 251.354 10.4498 253L12.1505 257L13.8603 261L14.7693 263L16.1427 266C16.7423 267.338 17.3129 268.688 17.9691 270C18.6491 271.359 19.4076 272.677 20.1535 274L21.8503 277C23.2046 279.36 24.597 281.701 26.0532 284C27.7721 286.714 29.5711 289.379 31.4275 292L33.6296 295C34.8815 296.682 36.1401 298.361 37.4491 300L39.9205 303C41.3214 304.679 42.7193 306.36 44.1659 308L47.8341 312L51.2855 315.996C52.1691 316.996 53.0749 317.969 54.0247 318.907C56.0196 320.876 58.2054 322.637 60.2855 324.513L65.0039 328.845L69 332.271L73 335.715C74.631 337.073 76.3219 338.352 78 339.65L82 342.765L83.9992 344.269L85.9769 345.746L86.9267 346.514L87.8117 347.325C88.5853 348.117 89.2755 348.981 89.6466 350.04L89.9221 352.004L89.8117 353.001L89.5934 354C89.3512 355.016 88.9882 356.008 88.6659 357L87.3333 361L84.6667 369L78.3333 388L76.3333 394L75.0255 398L73.2801 404C72.5723 406.349 71.7705 408.669 71.0008 410.998L69.7654 414.84L69.4977 415.841L69.3542 416.329L69 418M146 98.3287C147.322 98.0986 148.661 98.0434 150 98.0146L154 98C155.668 98.002 157.334 97.9964 159 98.0903C160.005 98.1469 161.011 98.281 162 98.4676C163.363 98.7247 164.686 99.1113 166 99.5486L168 100.353L169 100.836C170.044 101.339 171.056 101.961 171.996 102.638C174.409 104.376 176.493 106.57 178.2 109.001L179.467 111L180.001 112L180.471 113L180.881 114L181.557 116C181.857 116.99 182.098 117.993 182.331 119L182.535 120L182.826 122L182.91 123C182.962 124.001 182.988 124.998 182.995 126C183.007 127.662 183.016 129.347 182.816 131L182.482 133L181.957 135L181.3 137L180.532 139L179.583 141L178.351 142.999L177.606 143.996L176.786 144.985L174.957 146.906C173.45 148.368 171.808 149.702 170 150.775C168.736 151.526 167.383 152.12 166 152.612C164.699 153.075 163.362 153.445 162 153.674C160.676 153.897 159.34 153.957 158 153.985L154 154L150 153.985C148.66 153.957 147.324 153.896 146 153.674C143.946 153.331 141.943 152.672 140 151.934C138.286 151.284 136.595 150.548 135 149.64L133.001 148.401L132.004 147.699L130.04 146.181C128.778 145.175 127.58 144.056 126.529 142.829C125.516 141.646 124.657 140.344 123.88 138.996C123.321 138.025 122.804 137.024 122.349 136L121.549 134L120.927 132L120.681 131C120.436 130.021 120.275 129.004 120.177 128C120.049 126.67 120.048 125.33 120.177 124C120.276 122.99 120.454 121.989 120.681 121C121.328 118.176 122.433 115.483 123.931 113.004C124.947 111.322 126.114 109.728 127.468 108.3C128.556 107.152 129.765 106.096 131.039 105.16L132.015 104.443L134.001 103.118L136 101.985C136.964 101.461 137.991 101.041 139 100.616L141 99.8156L143 99.0934L144 98.7855L146 98.3287M307 98.3256C309.309 97.94 311.668 98.0028 314 98L318 98.0146C319.339 98.0434 320.678 98.097 322 98.3287C324.086 98.6945 326.089 99.4265 328 100.327L329.996 101.349L331.961 102.549L333.826 103.927L334.699 104.681L335.532 105.468L337.073 107.174C337.801 108.065 338.489 109.019 339.069 110.015C339.635 110.986 340.206 111.964 340.648 113L341.451 115L342.073 117C342.321 117.994 342.549 118.985 342.699 120C342.992 121.984 343.01 123.999 342.995 126C342.986 127.335 342.962 128.67 342.829 130C342.695 131.347 342.448 132.674 342.181 134C341.977 135.009 341.726 136.023 341.401 137C340.819 138.752 340.022 140.416 339.069 141.996C337.65 144.351 335.922 146.526 333.826 148.316C332.362 149.568 330.746 150.631 328.999 151.446C327.718 152.044 326.361 152.469 325 152.84C324.011 153.11 323.009 153.354 322 153.535C321.009 153.714 320.006 153.853 319 153.91C317.334 154.003 315.668 154 314 154C312.332 154 310.666 154.003 309 153.91C307.994 153.853 306.991 153.714 306 153.535C304.994 153.354 303.984 153.12 303 152.841L301 152.25L300 151.907C298.981 151.515 297.977 151.112 297 150.622C294.054 149.144 291.405 147.167 289.015 144.907C287.13 143.123 285.374 141.191 283.97 139C282.593 136.851 281.593 134.46 280.927 132L280.468 130L280.305 129L280.188 128L280.13 126L280.188 125L280.304 124L280.669 122L281.159 120L281.44 119L282.094 117L282.479 116L282.919 115L283.995 113C285.124 111.18 286.532 109.555 288.043 108.043L290.004 106.213L291.001 105.39L292 104.637L293 103.966L295 102.799C296.313 102.112 297.638 101.458 299 100.873C300.31 100.31 301.644 99.8026 303 99.3596C304.311 98.9313 305.638 98.553 307 98.3256M588 531L586.28 524.995L584.72 520L583.28 515L581.424 509L580.28 505L578.026 498C577.305 495.681 576.673 493.334 576 491L574.28 485L573.001 481C572.684 480.004 572.362 479.016 572.099 478.004L571.908 477.015L571.929 475.09L572.212 474.174L572.697 473.3L574.163 471.665C575.051 470.824 576.053 470.104 577.005 469.339L579 467.739L585 462.728L587 461L589 459.271C590.684 457.836 592.381 456.419 594 454.91L597 451.996L601 448C603.304 445.695 605.645 443.419 607.83 441C609.296 439.377 610.679 437.679 612.08 436C614.282 433.363 616.463 430.71 618.576 428C619.862 426.35 621.122 424.679 622.37 423C624.075 420.708 625.746 418.394 627.305 416C628.162 414.684 628.989 413.347 629.796 412C630.787 410.348 631.772 408.693 632.691 407L635.297 402L637.398 398L639.294 394C640.067 392.343 640.862 390.696 641.547 389C642.341 387.033 642.996 385.011 643.667 383L644.974 379L646.14 375C646.612 373.336 647.094 371.675 647.525 370C647.864 368.68 648.138 367.34 648.385 366C648.753 364.009 648.985 362.003 649.271 360C649.508 358.334 649.795 356.681 649.911 355C649.979 354.002 649.987 353 649.996 352L650 349L650 339L650 331C649.997 329.335 650.024 327.663 649.911 326C649.795 324.319 649.509 322.666 649.271 321C649.033 319.333 648.852 317.656 648.54 316C648.35 314.993 648.11 313.996 647.87 313L646.873 309C646.454 307.33 646.045 305.656 645.573 304C644.9 301.644 644.113 299.322 643.333 297L642.308 294C641.457 291.645 640.557 289.303 639.573 287C638.263 283.937 636.736 280.978 635.247 278C634.245 275.997 633.269 273.978 632.218 272C631.681 270.989 631.142 269.979 630.547 269C629.31 266.963 627.988 264.982 626.667 263C625.095 260.642 623.513 258.293 621.848 256C620.129 253.633 618.365 251.295 616.551 249C615.479 247.644 614.355 246.326 613.246 245C611.83 243.307 610.415 241.616 608.911 240C607.64 238.635 606.318 237.318 604.999 236C603.027 234.027 601.055 232.057 599 230.17C597.705 228.981 596.335 227.873 595 226.729C593.336 225.303 591.702 223.841 590 222.46L587 220.13L583 217.127C580.367 215.155 577.738 213.181 575 211.355C572.389 209.614 569.69 208.014 567 206.4C564.683 205.009 562.376 203.597 560 202.309C557.7 201.062 555.34 199.923 553 198.753C550.675 197.59 548.363 196.394 546 195.309C544.35 194.551 542.669 193.864 541 193.15L537 191.449L532 189.576L528 188.053C526.011 187.336 524.007 186.664 522 186.001C520.341 185.453 518.682 184.903 517 184.428C515.677 184.055 514.343 183.72 513 183.425L507 182.116L501 180.651C498.677 180.119 496.337 179.666 494 179.2C492.67 178.934 491.34 178.65 490 178.439L488 178.167C486.333 178.019 484.662 177.922 483 177.715L480 177.271L476 176.729C474.334 176.492 472.681 176.205 471 176.09C470.001 176.021 469 176.013 468 176.004L465 176L457 176L449 176C447.335 176.003 445.663 175.976 444 176.09C442.321 176.204 440.665 176.483 439 176.715L437 176.91C435.002 177.051 432.996 176.978 431 177.17C429.995 177.266 428.998 177.43 428 177.579L426 177.87L423 178.272L419 178.92L416 179.424C413.66 179.846 411.332 180.337 409 180.8L405 181.576C402.991 181.934 400.976 182.236 399 182.756C397.315 183.2 395.668 183.78 394 184.28C391.668 184.979 389.311 185.585 387 186.355C384.638 187.142 382.337 188.092 380 188.947L375 190.692C372.642 191.535 370.302 192.443 368 193.427C365.622 194.444 363.313 195.599 361 196.753L357 198.753C354.66 199.923 352.301 201.061 350 202.309C347.283 203.782 344.648 205.408 342 207C340.326 208.006 338.648 209.005 337 210.054C335.303 211.134 333.637 212.259 332 213.427L329 215.63C326.984 217.136 324.976 218.652 323 220.211C320.963 221.817 318.929 223.435 317 225.171C315.277 226.721 313.644 228.367 312 230.001L308 234L304.004 238C302.395 239.634 300.795 241.269 299.289 243C298.157 244.301 297.075 245.649 296.004 247C294.693 248.652 293.399 250.315 292.13 252C291.137 253.32 290.151 254.646 289.202 256L286.507 260L284.53 263C283.497 264.637 282.545 266.322 281.579 268C280.815 269.328 280.03 270.647 279.309 272C278.428 273.652 277.59 275.326 276.753 277C275.924 278.658 275.074 280.309 274.312 282L273.452 284L271.576 289L270.053 293C269.219 295.313 268.423 297.643 267.721 300C267.326 301.325 266.969 302.66 266.63 304C266.209 305.662 265.794 307.326 265.424 309L264.4 314L263.424 319L262.92 322C262.645 323.661 262.332 325.323 262.17 327C261.977 328.994 262.003 330.999 262 333L262 341L262 349C262.003 351.001 261.979 353.006 262.17 355C262.266 356.005 262.43 357.002 262.579 358L262.87 360L263.271 363L263.729 366L264.285 370L264.665 372L265.13 374L266.127 378C266.546 379.67 266.955 381.344 267.427 383C268.1 385.356 268.887 387.678 269.667 390L270.692 393C271.543 395.356 272.443 397.697 273.427 400C274.444 402.378 275.599 404.687 276.753 407C278.091 409.682 279.401 412.382 280.862 415C281.615 416.349 282.401 417.68 283.204 419C284.227 420.684 285.262 422.36 286.355 424C287.712 426.036 289.153 428.013 290.579 430C291.539 431.337 292.48 432.689 293.475 434C294.762 435.693 296.07 437.372 297.439 439L299.167 441L301.925 444L303.715 445.996C304.847 447.292 305.952 448.613 307.17 449.83C308.702 451.362 310.395 452.717 312.001 454.169C314.02 455.996 315.943 457.925 318 459.711C318.98 460.562 319.987 461.383 321 462.195C322.978 463.782 324.977 465.341 327 466.87C328.654 468.121 330.313 469.367 332 470.573C333.644 471.747 335.316 472.88 337 473.996C339.942 475.945 342.938 477.816 346 479.573C347.647 480.517 349.325 481.401 351 482.294L355 484.398L360 486.777L364 488.691L370 491.281L373 492.576C374.658 493.264 376.321 493.941 378 494.575C379.982 495.323 381.99 495.997 384 496.667C385.662 497.221 387.325 497.768 389 498.28L393 499.421L397 500.576C398.991 501.122 400.991 501.639 403 502.116L409 503.424C410.667 503.792 412.322 504.226 414 504.54C415.327 504.789 416.664 504.942 418 505.13L423 505.834L427 506.166L432 506.831L436 507.086L438 507.285C439.665 507.517 441.321 507.796 443 507.91C444.663 508.024 446.335 507.997 448 508L455 508L462 508C463.666 507.997 465.337 508.024 467 507.91L469 507.715L472 507.282L476 506.845L480 506.282L482 506.05L484 505.845C486.007 505.59 488.007 505.266 490 504.916L492 504.551L494 504.116L497 503.424L501 502.576L505 501.626L510 500.424L514 499.575L517 498.846L519 498.295L520 498.019L522 497.569L523 497.458L525 497.592C526.054 497.793 527.037 498.231 528 498.688L530 499.735L532 500.85L537 503.691C538.315 504.413 539.665 505.072 541 505.755L544 507.309L549 510.14L554 512.86L558 515.139L561 516.742L564 518.258C565.351 518.95 566.683 519.674 568 520.427C570.686 521.964 573.297 523.63 576 525.138C577.966 526.235 579.981 527.24 581.995 528.244L584.84 529.651L585.841 530.099L586.329 530.339L588 531M389 268.329C390.648 268.035 392.332 268.017 394 268.005C396 267.99 398.022 267.995 400 268.326C401.706 268.611 403.373 269.121 405 269.7C406.363 270.185 407.707 270.727 409 271.377C410.032 271.897 411.013 272.486 411.985 273.108C412.99 273.751 413.947 274.511 414.815 275.329C417.085 277.467 418.822 280.165 420.095 283C420.946 284.896 421.61 286.917 421.775 289C421.964 291.366 421.482 293.751 420.779 296C419.764 299.246 418.168 302.356 415.787 304.815C414.379 306.269 412.726 307.474 410.999 308.521L409 309.622L408 310.096L406 310.907C405.023 311.284 404.006 311.555 403 311.841C402.016 312.12 401.006 312.354 400 312.535L398 312.826C396.667 312.941 395.338 312.993 394 312.992C392.668 312.992 391.325 312.976 390 312.815C388.984 312.691 387.981 312.496 387 312.2C384.452 311.431 382.103 310.089 380.004 308.468C377.346 306.415 375.034 303.926 373.367 301L372.367 299L371.966 298L371.624 297L371.138 295L370.847 293L370.715 291C370.671 289.998 370.762 288.997 370.847 288L370.975 287L371.139 286L371.635 284C372.328 281.842 373.47 279.837 374.789 278.004L376.329 276.04L377.185 275.093L379.04 273.329L380.015 272.532L382.001 271.133C384.144 269.77 386.495 268.778 389 268.329M515 268.329C515.991 268.152 516.996 268.083 518 268.04C518.997 267.998 520.002 267.995 521 268.015C521.997 268.035 523.009 268.049 524 268.174L526 268.465C527.008 268.667 528.007 268.89 529 269.159C530.705 269.621 532.397 270.166 534 270.915C536.453 272.061 538.736 273.6 540.699 275.468L542.319 277.174L543.072 278.09L543.775 279.039L545.034 281.004L546.034 283L546.438 284L547.072 286L547.319 287L547.684 289L547.816 291C547.796 293.432 547.097 295.805 546.084 298C545.604 299.041 545.036 300.018 544.441 300.996L543.072 302.96L541.532 304.815L539.826 306.471L538.91 307.211L537.961 307.892L535.996 309.095C534.404 309.985 532.716 310.689 531 311.3C529.373 311.879 527.706 312.389 526 312.674C524.022 313.005 522 313.01 520 312.995C518.667 312.986 517.326 312.976 516 312.815C514.984 312.691 513.981 312.496 513 312.2C510.452 311.431 508.103 310.089 506.004 308.468C503.346 306.415 501.033 303.926 499.367 301C498.478 299.438 497.774 297.759 497.39 296C497.103 294.681 497.058 293.343 497.015 292L497.005 290C497.022 287.982 497.061 285.949 497.649 284C497.964 282.956 498.41 281.962 498.92 281C499.47 279.961 500.103 278.958 500.789 278.004L502.329 276.04L503.185 275.093L505.04 273.329L506.015 272.532L508.001 271.133C510.144 269.77 512.495 268.778 515 268.329z"/>
</svg>
